 <svg  version="1.0" xmlns="http://www.w3.org/2000/svg"  width="300.000000pt" height="300.000000pt" viewBox="0 0 300.000000 300.000000"  preserveAspectRatio="xMidYMid meet">  <g transform="translate(0.000000,300.000000) scale(0.100000,-0.100000)" fill="#f8a408" stroke="none"> <path d="M1188 2950 c-31 -24 -40 -46 -73 -190 -15 -63 -29 -118 -31 -122 -2 -4 -61 20 -130 53 -143 67 -185 74 -227 35 -40 -37 -42 -63 -9 -213 16 -76 28 -141 25 -145 -2 -5 -67 -8 -144 -8 -153 0 -186 -9 -207 -55 -26 -56 -5 -111 76 -197 l26 -28 -107 0 c-104 0 -108 -1 -139 -29 l-33 -29 -3 -239 c-3 -322 2 -333 176 -333 50 0 92 -4 92 -8 0 -5 -9 -17 -20 -27 -11 -10 -34 -39 -50 -63 -41 -62 -40 -104 4 -148 l34 -34 151 0 c83 0 151 -1 151 -3 0 -2 -14 -66 -30 -142 -18 -81 -28 -151 -25 -167 9 -37 59 -78 96 -78 16 0 47 9 69 20 22 11 43 20 47 20 4 0 7 -152 5 -337 -4 -363 0 -397 45 -432 53 -43 77 -33 330 130 129 82 238 149 242 147 4 -2 99 -68 211 -148 175 -124 210 -145 242 -145 45 0 84 33 99 84 7 23 9 156 7 369 -2 182 1 332 5 332 4 0 25 -9 47 -20 59 -30 96 -26 136 14 19 19 34 43 34 55 0 11 -13 82 -30 158 -17 75 -30 138 -30 140 0 2 68 3 151 3 l151 0 34 34 c44 44 45 86 4 148 -16 24 -39 53 -50 63 -11 10 -20 22 -20 27 0 4 42 8 93 8 106 0 135 11 160 60 16 31 17 61 15 273 l-3 239 -33 29 c-31 28 -35 29 -139 29 l-107 0 26 28 c82 88 103 144 74 201 -23 43 -54 51 -206 51 -76 0 -141 3 -143 8 -3 4 9 69 25 145 33 150 31 176 -9 213 -42 39 -84 32 -227 -35 -69 -33 -127 -57 -130 -53 -2 4 -16 59 -31 122 -33 144 -42 166 -73 190 -26 21 -82 26 -111 10 -10 -5 -58 -59 -107 -120 -49 -60 -91 -110 -94 -110 -3 0 -45 50 -94 110 -49 61 -97 115 -107 120 -29 16 -85 11 -111 -10z m138 -73 c27 -29 70 -78 96 -109 26 -30 56 -58 67 -61 27 -7 59 19 127 104 79 99 101 119 133 119 35 0 64 -32 80 -90 8 -25 17 -58 22 -74 5 -16 9 -39 9 -51 0 -27 25 -78 46 -96 20 -17 58 -6 186 54 107 49 139 51 165 10 16 -23 15 -34 -10 -158 -14 -73 -24 -141 -21 -152 10 -37 42 -46 181 -47 113 -2 135 -5 153 -21 30 -27 25 -66 -20 -131 -22 -33 -40 -69 -40 -80 0 -33 52 -52 140 -52 111 0 108 8 108 -269 0 -220 -4 -257 -32 -275 -6 -4 -41 -8 -77 -8 -76 0 -125 -14 -139 -40 -7 -13 1 -32 35 -81 49 -71 56 -108 25 -139 -17 -17 -34 -20 -97 -20 -153 -1 -225 -15 -237 -47 -3 -7 6 -69 19 -136 30 -149 31 -155 3 -184 -25 -27 -60 -29 -111 -8 -33 13 -37 13 -61 -6 l-26 -20 0 -344 c0 -314 -1 -345 -18 -365 -17 -20 -46 -27 -83 -18 -8 2 -53 30 -98 63 -217 156 -248 177 -283 196 -21 10 -44 19 -53 19 -8 0 -52 -24 -98 -53 -406 -263 -402 -261 -444 -215 -19 22 -20 36 -22 358 -1 226 -5 344 -13 363 -12 31 -2 30 -131 11 -31 -5 -41 -2 -57 16 -23 26 -24 46 -9 110 6 25 13 56 15 70 2 14 9 48 15 77 11 54 1 86 -30 98 -8 3 -74 8 -145 12 -86 3 -139 10 -154 19 -34 22 -29 65 18 134 22 32 40 68 40 79 0 29 -34 44 -110 48 -36 2 -72 4 -80 5 -8 0 -25 9 -37 20 -20 19 -21 27 -21 254 0 285 -4 273 113 278 146 6 164 29 95 127 -45 64 -50 95 -19 130 20 23 28 24 152 27 73 2 142 8 154 14 31 15 35 47 17 125 -35 152 -38 195 -17 222 26 32 57 30 154 -14 153 -68 164 -71 193 -55 14 7 26 22 26 32 0 12 4 16 12 12 6 -4 8 -3 5 3 -11 18 42 216 65 240 36 38 69 30 124 -30z"/> <path d="M1221 2871 c-6 -10 -22 -67 -37 -127 -15 -59 -36 -123 -48 -141 -31 -48 -71 -45 -197 17 -62 30 -116 50 -137 50 l-34 0 5 -57 c5 -66 31 -205 41 -221 11 -18 -31 -89 -56 -96 -13 -3 -80 -6 -150 -6 -183 0 -190 -14 -80 -153 30 -37 64 -70 76 -73 35 -8 1779 0 1798 10 21 10 113 125 130 161 19 43 1 49 -160 56 -81 4 -148 7 -150 8 -2 0 0 6 3 11 4 6 3 10 -2 9 -23 -4 -33 4 -38 34 -6 33 -2 66 30 216 18 80 15 101 -13 101 -17 0 -184 -67 -224 -90 -28 -16 -87 -12 -107 8 -28 26 -37 49 -61 157 -24 106 -40 150 -39 105 0 -14 15 -79 32 -145 30 -111 35 -121 67 -143 45 -30 61 -27 209 43 102 48 141 62 141 52 0 -1 -14 -63 -31 -137 -33 -149 -32 -184 7 -221 24 -23 33 -24 180 -27 85 -2 154 -8 154 -13 0 -5 -30 -47 -67 -94 l-67 -85 -896 0 -896 0 -67 85 c-37 47 -67 89 -67 94 0 5 70 11 156 13 l156 3 29 33 c36 40 36 54 -1 217 -16 71 -27 131 -25 134 3 2 36 -10 75 -27 38 -18 101 -46 139 -63 77 -35 103 -34 146 4 22 18 32 46 59 162 18 76 37 140 43 142 5 2 47 -44 94 -103 142 -179 174 -179 314 -4 42 52 86 101 98 107 l22 13 -21 0 c-14 0 -39 -20 -70 -57 -27 -32 -64 -73 -81 -91 -18 -19 -33 -37 -33 -41 0 -4 -14 -15 -31 -25 -52 -31 -88 -11 -169 99 -71 94 -92 115 -116 115 -13 0 -28 -8 -33 -19z"/> <path d="M1663 2526 c-56 -25 -65 -117 -15 -156 60 -48 142 -5 142 75 0 69 -62 109 -127 81z m87 -43 c15 -19 19 -35 15 -53 -11 -42 -26 -53 -68 -47 -48 7 -49 7 -50 56 -2 69 62 96 103 44z"/> <path d="M1682 2478 c-23 -23 -11 -78 17 -78 38 0 54 46 25 74 -19 19 -26 20 -42 4z m36 -39 c-1 -12 -8 -24 -15 -26 -17 -6 -27 35 -12 53 16 19 32 4 27 -27z"/> <path d="M1795 2354 c-82 -86 -151 -159 -153 -164 -3 -8 25 -40 36 -40 4 0 79 71 166 159 163 163 181 192 126 199 -21 2 -51 -24 -175 -154z m150 96 c3 -5 -1 -10 -9 -10 -9 0 -15 -3 -15 -7 3 -17 -2 -24 -11 -18 -7 4 -7 13 0 26 12 21 25 25 35 9z m-45 -50 c0 -5 -12 -16 -27 -24 -16 -8 -24 -15 -20 -16 11 0 -24 -35 -35 -35 -4 0 -8 -4 -9 -10 0 -5 -8 -18 -16 -28 -12 -13 -19 -14 -24 -5 -8 12 28 52 91 101 40 30 40 31 40 17z m-140 -126 c0 -3 -8 -19 -17 -35 -16 -27 -53 -41 -53 -19 0 6 3 9 8 8 17 -3 42 16 42 33 0 10 5 19 10 19 6 0 10 -3 10 -6z"/> <path d="M983 2460 c-19 -11 -33 -28 -33 -39 0 -22 25 -45 40 -36 7 4 10 -27 10 -95 l0 -101 38 3 37 3 0 140 0 140 -30 3 c-17 1 -44 -6 -62 -18z m70 -24 c3 -7 6 -57 6 -110 1 -89 0 -96 -19 -96 -18 0 -20 7 -20 74 0 53 -4 77 -15 86 -12 10 -14 30 -6 58 3 9 50 -1 54 -12z"/> <path d="M1155 2454 c-45 -49 -51 -167 -12 -224 41 -62 128 -56 162 10 35 69 15 203 -34 230 -37 19 -90 12 -116 -16z m113 -12 c91 -79 24 -264 -80 -221 -16 7 -33 22 -38 33 -12 34 -7 159 8 164 6 2 12 10 12 17 0 27 69 32 98 7z"/> <path d="M1196 2411 c-49 -54 -18 -187 38 -165 39 15 46 125 10 165 -21 24 -27 24 -48 0z m49 -76 c0 -69 -15 -99 -37 -76 -18 17 -17 123 1 145 23 27 36 2 36 -69z"/> <path d="M1401 2464 c-74 -52 -65 -231 13 -268 76 -36 146 30 146 139 0 52 -22 112 -48 131 -24 19 -83 17 -111 -2z m90 -14 c29 -16 49 -64 49 -117 0 -87 -56 -140 -120 -113 -26 11 -33 25 -55 107 -7 26 28 108 53 122 22 13 48 14 73 1z"/> <path d="M1430 2410 c-28 -28 -28 -122 0 -150 11 -11 24 -20 29 -20 21 0 41 46 41 93 0 79 -32 115 -70 77z m50 -73 c0 -61 -15 -93 -36 -76 -18 15 -19 130 -2 147 20 20 38 -14 38 -71z"/> <path d="M1889 2291 c-41 -41 -40 -91 1 -133 27 -26 36 -30 67 -25 54 9 78 38 78 93 0 38 -5 50 -28 70 -39 33 -81 31 -118 -5z m91 -12 c0 -5 4 -8 9 -5 10 7 24 -22 16 -34 -3 -5 -1 -11 4 -14 16 -10 0 -46 -21 -46 -10 0 -17 -4 -13 -9 9 -15 -28 -18 -56 -5 -21 11 -26 20 -27 58 -2 34 2 48 15 55 24 14 73 14 73 0z"/> <path d="M1921 2246 c-11 -19 -10 -27 1 -45 15 -25 35 -24 54 4 12 18 11 24 -2 43 -20 28 -37 28 -53 -2z m44 -22 c0 -19 -5 -29 -15 -29 -16 0 -25 28 -16 51 10 25 31 10 31 -22z"/> <path d="M300 2000 c-19 -19 -20 -34 -20 -234 0 -231 3 -245 53 -246 12 -1 546 -1 1186 -2 l1164 -1 19 23 c18 22 19 40 16 236 -2 117 -7 216 -11 220 -19 19 -210 23 -1265 23 -1107 1 -1122 1 -1142 -19z m2391 -235 l1 -220 -1192 0 -1192 0 1 220 c0 121 1 221 1 223 0 1 536 1 1190 0 l1191 -3 0 -220z"/> <path d="M2463 1919 c-78 -16 -118 -67 -118 -149 0 -65 19 -101 68 -130 39 -24 116 -26 158 -5 34 18 70 71 62 91 -9 24 -63 17 -89 -11 -31 -34 -76 -33 -103 1 -62 79 36 182 103 109 26 -28 80 -35 89 -11 7 18 -27 72 -55 87 -35 19 -80 26 -115 18z m115 -51 c7 -7 9 -15 4 -20 -6 -6 -25 1 -48 17 l-38 26 34 -6 c19 -3 40 -11 48 -17z m-141 -9 c-29 -22 -52 -89 -41 -121 3 -12 15 -31 25 -42 26 -27 24 -44 -2 -20 -32 28 -50 77 -43 116 7 36 49 88 72 88 9 0 5 -8 -11 -21z m153 -169 c0 -10 -36 -33 -59 -36 -7 -2 -4 8 10 22 23 24 49 32 49 14z"/> <path d="M464 1908 c-21 -33 -102 -274 -95 -281 5 -5 23 -7 42 -5 26 2 34 8 39 28 5 22 11 25 50 25 39 0 45 -3 50 -25 5 -20 13 -26 39 -28 19 -2 37 0 42 5 7 7 -66 226 -92 274 -11 21 -63 26 -75 7z m61 -45 c21 -54 57 -157 60 -174 5 -23 -8 -25 -25 -4 -8 9 -30 15 -60 15 -30 0 -52 -6 -60 -15 -7 -8 -16 -15 -21 -15 -12 0 -3 38 33 133 22 57 34 77 48 77 10 0 21 -8 25 -17z"/> <path d="M667 1913 c-11 -10 -8 -174 3 -214 6 -20 19 -44 29 -53 45 -41 140 -36 178 9 21 24 23 36 23 146 l0 119 -35 0 c-39 0 -38 5 -35 -107 2 -91 -10 -123 -43 -123 -40 0 -47 18 -47 127 l0 103 -33 0 c-19 0 -37 -3 -40 -7z m201 -129 c-2 -93 -13 -117 -58 -128 -24 -6 -24 -5 -4 5 33 17 44 47 49 129 4 86 3 80 10 80 3 0 4 -39 3 -86z m-132 -96 c10 -13 23 -25 27 -25 5 -1 11 -4 14 -7 3 -3 -5 -3 -18 -1 -26 5 -57 33 -59 55 -1 8 -1 42 0 75 l3 60 7 -66 c4 -42 13 -75 26 -91z"/> <path d="M934 1906 c-12 -32 1 -51 36 -54 l35 -3 0 -112 0 -112 38 -3 37 -3 0 115 0 116 35 0 c33 0 35 2 35 35 l0 35 -105 0 c-83 0 -107 -3 -111 -14z m148 -39 c-21 -23 -30 -64 -31 -151 -1 -74 -12 -49 -17 41 -3 43 -11 88 -20 100 -7 12 -14 25 -14 28 0 3 23 5 52 5 l51 0 -21 -23z"/> <path d="M1184 1907 c-2 -7 -3 -74 -2 -148 l3 -134 38 -3 37 -3 0 60 0 61 45 0 45 0 0 -61 0 -60 38 3 37 3 0 145 0 145 -35 0 -35 0 -3 -52 -3 -53 -45 0 -44 0 0 55 0 55 -35 0 c-20 0 -38 -6 -41 -13z m51 -67 c2 -13 12 -31 22 -42 14 -16 15 -22 5 -36 -7 -9 -15 -25 -18 -34 -4 -10 -10 -18 -15 -18 -9 0 -20 75 -15 110 2 14 4 31 5 39 1 20 11 9 16 -19z m163 -100 l-3 -40 -31 35 c-34 38 -35 31 15 91 5 7 7 14 4 17 -3 3 -1 12 3 19 10 15 17 -58 12 -122z"/> <path d="M1475 1907 c-3 -7 -4 -74 -3 -148 l3 -134 90 0 90 0 0 30 c0 29 -2 30 -52 33 -49 3 -53 5 -53 29 0 24 2 25 39 20 49 -6 63 3 59 39 -3 27 -6 29 -50 32 -39 3 -48 7 -48 22 0 16 9 19 53 22 50 3 52 4 52 33 l0 30 -88 3 c-66 2 -89 -1 -92 -11z m96 -24 c2 1 -6 -8 -18 -20 -13 -12 -23 -28 -23 -35 1 -19 25 -48 40 -48 8 0 3 -12 -13 -28 -33 -34 -34 -56 -5 -76 20 -14 20 -16 3 -22 -39 -15 -50 7 -52 111 -2 79 1 102 13 117 12 12 21 15 34 8 10 -5 19 -8 21 -7z"/> <path d="M1707 1914 c-4 -4 -7 -72 -7 -151 l0 -144 38 3 c36 3 37 4 40 47 4 53 -6 97 -18 85 -5 -5 -10 -26 -12 -47 -1 -20 -6 -37 -10 -37 -4 0 -8 47 -8 105 0 85 3 105 15 105 8 0 22 -12 32 -26 30 -43 82 -100 83 -89 0 6 -19 42 -43 80 -36 59 -47 70 -73 73 -16 2 -33 0 -37 -4z"/> <path d="M1870 1844 c0 -88 18 -92 28 -7 l6 48 7 -40 c4 -22 8 -73 8 -112 1 -88 -13 -95 -59 -31 -17 23 -40 48 -52 56 -20 15 -21 14 -14 -4 4 -10 24 -45 44 -77 35 -54 39 -57 72 -55 l35 3 0 145 0 145 -37 3 -38 3 0 -77z"/> <path d="M1980 1885 c0 -33 2 -35 35 -35 l35 0 0 -116 0 -115 38 3 37 3 3 112 3 112 32 3 c28 3 32 7 32 33 l0 30 -107 3 -108 3 0 -36z m152 -2 c4 -2 -2 -13 -12 -23 -16 -16 -20 -35 -21 -87 -1 -38 0 -76 1 -87 1 -11 -3 -15 -9 -12 -6 4 -11 36 -11 71 0 65 -13 114 -32 126 -6 4 -7 12 -4 18 7 10 67 6 88 -6z"/> <path d="M2230 1770 l0 -151 38 3 37 3 0 145 0 145 -37 3 -38 3 0 -151z m50 28 c0 -35 -4 -70 -9 -77 -6 -10 -9 12 -9 62 0 42 4 77 9 77 5 0 9 -28 9 -62z"/> <path d="M568 1445 c-16 -13 -28 -27 -28 -30 0 -4 -6 -12 -12 -20 -72 -75 -88 -128 -42 -145 14 -6 76 -10 137 -11 62 -1 123 -4 136 -8 29 -8 61 -58 55 -86 -2 -11 -6 -31 -8 -45 -2 -14 -11 -56 -20 -93 -21 -89 -21 -133 1 -145 17 -10 98 19 198 72 79 41 107 43 141 9 24 -23 34 -49 57 -149 15 -67 34 -130 41 -139 22 -31 57 -11 115 65 84 110 126 150 160 150 32 0 41 -8 160 -138 47 -51 89 -92 95 -92 5 0 3 6 -5 13 -9 6 -53 58 -99 115 -89 111 -103 122 -149 122 -49 0 -59 -8 -153 -124 -50 -61 -96 -111 -101 -111 -6 0 -25 63 -42 140 -29 123 -36 142 -64 167 -19 17 -43 28 -60 28 -16 0 -88 -28 -160 -62 -72 -33 -133 -59 -136 -56 -3 2 9 64 25 137 33 147 35 160 19 194 -22 48 -55 57 -213 57 -92 0 -146 4 -146 10 0 6 30 48 67 95 l66 85 898 0 897 0 65 -82 c35 -46 66 -90 70 -98 5 -13 6 -13 6 0 1 19 -37 77 -96 148 l-45 52 -901 0 -902 -1 -27 -24z"/> <path d="M1043 1367 c-5 -6 -15 -26 -22 -43 -11 -28 -18 -32 -62 -38 -27 -4 -49 -10 -49 -14 0 -5 14 -21 31 -38 29 -27 31 -32 25 -81 -3 -29 -3 -53 1 -53 5 0 27 10 49 22 l41 22 38 -23 c47 -27 59 -18 47 37 -9 38 -8 42 24 73 19 18 34 36 34 41 0 4 -22 10 -49 14 -45 6 -50 9 -67 46 -20 46 -28 52 -41 35z m88 -97 c16 0 19 -4 14 -17 -4 -10 -12 -31 -18 -48 -16 -48 -24 -60 -39 -57 -7 2 -26 5 -43 6 -16 2 -36 4 -42 5 -7 0 -13 10 -13 21 0 12 -7 34 -15 50 -15 29 -15 30 20 44 19 8 35 19 35 25 0 20 36 17 58 -6 13 -13 32 -23 43 -23z"/> <path d="M1919 1337 c-20 -42 -25 -45 -70 -51 -27 -4 -49 -10 -49 -14 0 -5 15 -23 34 -41 32 -31 33 -35 24 -73 -12 -56 0 -65 49 -37 l40 23 38 -23 c47 -27 59 -18 47 37 -9 38 -8 42 24 73 19 18 34 36 34 41 0 4 -22 10 -49 14 -46 6 -51 9 -65 44 -22 55 -33 57 -57 7z m57 -42 c13 -14 33 -25 44 -25 17 0 20 -4 15 -22 -4 -13 -11 -27 -16 -32 -5 -6 -9 -25 -9 -44 0 -30 -2 -33 -22 -26 -13 4 -39 8 -58 9 -50 3 -50 3 -50 25 0 12 -7 34 -15 51 -15 28 -15 30 9 39 14 5 34 18 46 30 25 25 28 25 56 -5z"/> <path d="M1468 1330 c-12 -30 -22 -40 -40 -40 -38 0 -68 -12 -68 -26 0 -7 13 -23 30 -35 28 -22 29 -25 24 -76 -4 -29 -4 -53 0 -53 4 0 25 9 46 20 l40 20 40 -20 c21 -11 42 -20 46 -20 4 0 4 24 0 53 -5 51 -4 54 24 76 17 12 30 28 30 35 0 14 -30 26 -68 26 -18 0 -28 10 -40 40 -9 22 -24 40 -32 40 -8 0 -23 -18 -32 -40z m64 -35 c11 -14 28 -25 39 -25 22 0 24 -12 7 -43 -6 -12 -11 -35 -10 -50 2 -16 -2 -26 -7 -23 -5 4 -12 2 -16 -4 -4 -7 -12 -7 -25 0 -13 7 -28 7 -46 0 -33 -13 -34 -11 -44 42 -5 24 -11 50 -15 59 -4 12 1 18 19 23 15 4 32 15 38 26 17 27 36 25 60 -5z"/> <path d="M2208 1243 c-28 -17 -48 -52 -48 -81 0 -26 51 -255 61 -272 13 -23 11 3 -6 80 -58 256 -53 265 171 276 71 3 131 8 133 10 2 2 -61 4 -140 4 -116 0 -149 -4 -171 -17z"/> <path d="M1860 963 c-27 -24 -35 -45 -61 -152 -29 -124 -37 -179 -18 -131 6 14 17 54 25 90 28 121 34 137 65 169 27 29 35 32 66 26 19 -3 78 -27 131 -51 54 -25 111 -48 127 -51 17 -2 -33 25 -109 61 -77 36 -152 66 -167 66 -17 0 -41 -11 -59 -27z"/> <path d="M1028 904 c-15 -8 -32 -23 -38 -34 -6 -12 -10 -152 -10 -378 0 -342 1 -360 19 -376 17 -15 25 -16 55 -6 19 6 36 14 38 18 2 4 23 21 48 37 25 17 50 33 55 37 14 11 193 127 235 153 97 61 91 58 119 44 14 -8 28 -16 31 -19 7 -9 224 -160 308 -215 40 -26 75 -45 78 -42 5 5 -335 253 -408 297 -38 23 -13 36 -304 -151 -127 -82 -234 -149 -238 -149 -3 0 -6 169 -6 375 l0 374 30 16 c16 8 33 15 38 15 5 0 21 -55 37 -122 15 -68 34 -137 41 -155 23 -57 106 -79 154 -40 9 7 53 58 99 115 46 56 87 102 91 102 4 0 36 -35 70 -77 131 -161 164 -182 228 -149 41 21 44 28 82 189 18 75 38 137 44 137 6 -1 22 -7 36 -15 36 -21 49 -18 20 5 -14 11 -35 20 -48 20 -26 0 -46 -37 -63 -122 -31 -155 -60 -201 -124 -196 -37 3 -45 10 -129 111 -121 146 -114 147 -250 -21 -63 -78 -81 -92 -119 -92 -50 0 -66 27 -101 168 -19 73 -39 139 -46 147 -16 19 -37 18 -72 -1z"/> <path d="M1997 853 c-11 -11 -8 -691 3 -698 7 -4 10 115 10 349 0 196 -1 356 -3 356 -2 0 -7 -3 -10 -7z"/> </g> </svg> 