<?xml version="1.0" standalone="no"?>
<!DOCTYPE svg PUBLIC "-//W3C//DTD SVG 20010904//EN"
 "http://www.w3.org/TR/2001/REC-SVG-20010904/DTD/svg10.dtd">
<svg version="1.0" xmlns="http://www.w3.org/2000/svg"
 width="300.000000pt" height="297.000000pt" viewBox="0 0 300.000000 297.000000"
 preserveAspectRatio="xMidYMid meet">
<metadata>
Created by potrace 1.10, written by Peter Selinger 2001-2011
</metadata>
<g transform="translate(0.000000,297.000000) scale(0.100000,-0.100000)"
fill="#000000" stroke="none">
<path d="M1896 2963 c-4 -5 -28 -15 -53 -23 -53 -17 -83 -52 -92 -107 -6 -36
-9 -39 -66 -56 -33 -10 -66 -20 -74 -23 -25 -8 3 -25 50 -31 58 -7 65 -14 84
-81 31 -106 52 -119 125 -82 44 22 60 25 60 10 0 -5 -7 -10 -15 -10 -8 0 -24
-9 -35 -20 -12 -12 -25 -18 -30 -15 -5 3 -28 2 -52 -1 -50 -8 -87 -43 -125
-117 l-25 -50 -71 69 c-40 38 -91 87 -115 109 l-43 40 -38 -21 -38 -20 -109
94 c-60 52 -164 143 -231 203 -66 59 -130 113 -141 120 -18 11 -31 4 -129 -72
-59 -47 -134 -105 -167 -129 -58 -42 -59 -43 -87 -26 l-29 17 -93 -82 c-101
-89 -248 -208 -314 -255 -37 -25 -58 -64 -35 -64 28 0 188 123 380 294 49 43
58 48 90 42 40 -6 54 0 142 64 93 67 88 66 82 7 -4 -46 -10 -56 -48 -90 -52
-46 -56 -75 -19 -129 l25 -38 -27 -5 c-16 -4 -47 -11 -70 -17 -24 -6 -56 -8
-72 -5 -23 5 -34 0 -57 -24 -32 -34 -78 -49 -149 -49 -73 0 -103 -11 -178 -69
-38 -28 -77 -51 -87 -51 -14 0 -18 -7 -18 -30 1 -16 4 -30 8 -30 14 0 107 64
145 100 l40 38 102 4 c89 3 105 7 126 26 13 12 26 22 30 22 9 0 -38 -98 -58
-120 -27 -30 -5 -24 27 7 15 15 28 22 28 17 0 -6 -11 -21 -25 -34 -27 -25 -35
-51 -10 -30 9 7 15 8 15 2 0 -5 -12 -17 -26 -27 -14 -9 -23 -19 -20 -22 3 -3
17 2 30 11 41 26 44 18 6 -15 -32 -28 -33 -30 -10 -24 23 6 23 4 -8 -22 -18
-15 -32 -35 -32 -43 1 -11 6 -9 19 8 18 21 51 31 51 15 -1 -5 -14 -23 -30 -42
-35 -41 -32 -52 6 -22 45 35 42 12 -4 -25 -52 -44 -54 -59 -6 -39 43 18 54 19
54 5 0 -6 -11 -15 -25 -20 -14 -5 -25 -16 -25 -24 0 -7 -9 -16 -20 -19 -11 -3
-20 -11 -20 -17 0 -7 7 -10 16 -6 9 3 28 9 42 12 l27 7 -34 -36 c-35 -37 -36
-66 -1 -45 11 7 23 9 27 4 10 -10 -45 -58 -58 -51 -5 4 -9 0 -9 -8 0 -8 -7
-17 -15 -21 -8 -3 -15 -2 -15 3 0 5 -18 20 -40 35 -48 31 -53 50 -11 41 46
-10 46 12 -1 42 -36 24 -39 28 -20 31 23 4 29 17 11 27 -6 4 -8 13 -5 21 3 8
-1 14 -8 14 -8 0 -16 9 -19 20 -6 23 -6 24 28 8 41 -19 41 0 0 42 -39 40 -40
49 -4 30 24 -13 25 -2 1 17 -16 14 -16 14 3 8 18 -6 18 -4 -3 18 -28 30 -28
41 0 26 23 -12 23 -11 5 8 -10 12 -19 30 -20 42 -1 11 -5 21 -10 21 -5 0 -7 6
-5 13 2 6 -6 32 -18 57 l-22 45 -16 -40 c-9 -22 -25 -57 -36 -77 -17 -32 -18
-38 -5 -38 20 0 19 -7 -6 -38 -19 -24 -19 -27 -4 -30 15 -3 14 -7 -6 -28 -20
-21 -21 -27 -9 -34 12 -7 10 -14 -10 -36 -19 -20 -21 -26 -7 -21 23 8 22 -2
-4 -29 -25 -26 -18 -44 14 -37 18 4 16 -1 -15 -30 -47 -42 -50 -62 -8 -53 43
8 37 -9 -12 -41 -24 -15 -45 -29 -48 -31 -10 -7 27 -22 48 -19 35 7 26 -11
-21 -35 -31 -16 -37 -23 -24 -26 12 -2 16 -9 13 -19 -3 -8 -6 -21 -6 -29 0
-10 -6 -13 -19 -9 -15 4 -20 -1 -24 -27 -2 -18 -4 -34 -3 -35 0 -1 19 11 41
26 21 14 42 38 45 51 5 19 13 25 34 25 18 0 34 8 43 22 14 20 13 24 -12 49
-27 27 -27 27 -9 60 14 26 15 35 5 48 -8 10 -9 21 -3 33 5 10 10 38 10 63 0
25 10 81 23 125 12 44 22 90 23 103 0 12 4 22 8 22 13 0 18 -36 23 -168 2 -73
9 -141 14 -150 6 -11 6 -24 1 -32 -5 -8 -4 -22 2 -33 5 -10 7 -29 4 -40 -3
-12 -6 -26 -7 -32 0 -5 -5 -18 -10 -27 -7 -13 -4 -23 11 -38 11 -11 25 -18 31
-15 5 4 -1 15 -13 25 -17 15 -19 19 -7 20 8 0 20 -5 27 -12 9 -9 15 -9 24 0
19 19 26 15 48 -34 17 -40 18 -53 9 -87 -10 -38 -9 -41 22 -73 23 -24 39 -32
52 -28 13 4 20 0 24 -14 5 -23 43 -19 43 4 0 16 16 19 25 5 7 -12 -22 -41 -41
-41 -8 0 -12 -4 -9 -10 3 -5 14 -10 24 -10 35 0 46 29 47 121 1 49 6 94 11
101 5 7 11 49 12 93 4 113 15 175 31 175 13 0 20 -16 30 -68 5 -26 19 -92 30
-147 12 -55 21 -106 22 -112 1 -7 7 -13 15 -13 7 0 13 -4 13 -10 0 -5 -6 -10
-14 -10 -18 0 -27 -50 -11 -66 14 -15 28 -90 19 -105 -6 -11 13 -39 27 -39 4
0 15 7 23 16 12 11 13 20 6 34 -8 16 -4 25 22 52 18 18 41 46 51 62 28 42 40
18 37 -74 -1 -8 2 -33 6 -55 3 -22 9 -66 11 -97 5 -55 7 -59 59 -104 37 -31
61 -45 74 -41 13 3 34 -9 67 -40 46 -42 83 -67 146 -95 15 -7 27 -16 27 -20 0
-8 115 -68 131 -68 14 0 105 -73 135 -109 16 -19 39 -33 62 -37 20 -4 46 -14
57 -24 23 -20 83 -50 99 -50 19 0 67 51 82 86 8 18 14 64 14 100 0 42 8 93 22
136 21 64 21 73 9 141 -8 39 -13 79 -12 87 10 96 11 223 2 300 -9 87 -13 97
-41 122 -36 34 -37 40 -5 82 31 41 32 67 2 101 l-23 27 -44 -37 c-24 -20 -61
-45 -81 -56 -84 -42 -112 -108 -69 -161 16 -21 17 -28 7 -43 -23 -30 -36 4
-47 126 l-12 115 36 65 c21 38 36 80 36 100 1 19 7 45 15 59 8 14 14 51 15 84
l0 59 -70 68 c-49 47 -87 97 -125 164 -29 52 -50 95 -46 95 4 0 47 -36 97 -81
49 -45 99 -86 111 -92 28 -13 50 5 99 79 36 53 67 74 113 74 15 0 36 7 47 15
29 22 33 19 56 -34 11 -27 26 -52 34 -55 18 -7 18 -12 -10 72 -14 40 -21 72
-15 72 5 0 9 -6 9 -12 0 -25 52 -123 57 -108 3 8 6 21 9 28 3 9 18 2 48 -23
25 -20 57 -37 74 -38 29 -2 30 -3 16 -29 -18 -36 -18 -82 1 -98 9 -7 14 -19
11 -27 -3 -7 1 -13 9 -13 8 0 15 -9 15 -20 0 -11 -7 -20 -15 -20 -8 0 -15 8
-15 17 0 9 -3 14 -6 10 -4 -3 -3 -14 1 -24 4 -10 10 -46 12 -79 3 -54 1 -65
-22 -92 -29 -34 -64 -108 -65 -134 0 -26 -8 -23 -61 27 -26 25 -53 45 -60 45
-14 0 -8 -8 93 -122 43 -48 78 -92 78 -96 0 -18 -38 -42 -66 -41 l-29 1 34 12
c19 7 36 17 38 23 2 6 -20 37 -49 69 -30 33 -68 76 -86 97 -17 21 -32 36 -33
35 -1 -2 -3 -20 -5 -42 -3 -37 -2 -38 16 -21 10 9 20 13 23 8 7 -12 -18 -44
-28 -35 -5 4 -5 1 -1 -6 4 -7 15 -11 24 -10 14 3 17 -5 14 -43 -2 -37 2 -53
20 -74 29 -33 96 -45 120 -21 19 19 39 21 55 5 8 -8 13 -7 18 2 5 7 4 10 -2 6
-6 -4 -14 0 -17 9 -9 23 0 29 19 14 14 -12 15 -9 10 21 -7 37 -15 52 -15 26 0
-22 -20 -33 -31 -16 -4 8 -3 19 4 28 10 12 8 14 -10 9 -13 -4 -23 -3 -23 0 0
10 20 38 20 29 0 -4 9 -3 21 3 16 9 19 18 14 39 -4 19 -1 32 10 41 13 11 15 9
15 -11 0 -13 4 -30 9 -38 5 -8 11 15 16 64 4 43 15 97 25 121 16 36 17 45 5
61 -12 15 -17 16 -34 5 -19 -11 -21 -10 -21 8 0 26 40 27 63 2 20 -22 21 -45
5 -75 -14 -26 -15 -31 -24 -126 -5 -55 -4 -72 4 -67 7 4 12 16 12 26 0 26 21
36 32 16 5 -9 17 -16 27 -16 11 0 21 -7 25 -15 7 -18 -15 -20 -33 -3 -10 11
-11 10 -6 -2 3 -8 24 -25 48 -38 53 -28 186 -32 207 -7 19 23 56 15 52 -10 -5
-29 -28 -49 -115 -98 -80 -46 -109 -74 -122 -117 -4 -14 -29 -73 -56 -132 -27
-58 -56 -137 -65 -174 -8 -37 -22 -77 -30 -88 -21 -30 -17 -49 19 -97 19 -24
47 -66 62 -94 61 -106 134 -195 165 -202 50 -10 53 -24 16 -79 -44 -63 -81
-185 -66 -214 6 -11 14 -20 18 -20 4 0 30 -22 59 -48 129 -117 154 -137 179
-142 23 -4 37 -23 64 -79 3 -8 13 -18 21 -22 8 -4 31 -15 53 -25 21 -11 49
-35 61 -55 13 -20 42 -46 64 -57 l41 -22 -1 43 c0 39 -1 40 -11 17 l-11 -25
-5 25 c-6 39 -20 46 -31 17 -12 -30 -21 -35 -21 -12 0 8 16 33 36 55 41 46 31
53 -17 13 -28 -24 -31 -25 -21 -6 14 26 15 33 3 33 -5 0 -12 -8 -15 -18 -3 -9
-4 -4 -2 13 4 28 3 29 -11 10 -15 -19 -15 -18 -9 10 6 30 6 30 -8 6 -7 -14
-21 -25 -29 -27 -12 -2 -14 5 -10 32 3 18 2 41 -2 51 -6 15 -9 12 -18 -16 -7
-19 -18 -37 -26 -39 -10 -3 -12 0 -8 12 3 8 9 39 12 68 l5 53 -17 -32 c-9 -18
-20 -33 -23 -33 -4 0 -6 33 -4 73 l3 72 -12 -52 c-16 -68 -31 -81 -25 -21 6
48 -5 66 -15 28 -9 -37 -30 -23 -23 15 8 39 -2 45 -29 15 -27 -30 -30 -16 -5
25 12 20 20 38 17 41 -3 3 -10 -4 -17 -15 -16 -31 -27 -26 -34 18 -8 53 -25
61 -24 13 0 -22 -6 -50 -13 -63 l-14 -24 -3 32 c-2 20 -8 30 -16 27 -8 -3 -11
6 -9 33 l3 38 -14 -35 c-13 -32 -15 -33 -15 -10 -1 20 -3 22 -12 10 -8 -12 -9
-11 -6 5 2 11 8 19 13 18 5 -1 14 14 20 33 15 47 1 43 -33 -11 -15 -25 -31
-45 -35 -45 -12 0 -10 5 11 42 11 18 24 52 31 75 6 24 28 63 50 88 22 26 40
55 40 65 0 26 -47 60 -81 60 -25 0 -36 10 -77 72 -26 40 -59 94 -74 122 -15
27 -43 66 -63 86 -41 42 -44 60 -10 60 23 0 25 3 25 50 0 53 27 136 80 240 18
35 39 85 47 112 11 40 20 51 51 65 20 9 40 19 43 20 4 2 4 -16 2 -41 -7 -59 6
-176 19 -176 7 0 8 39 3 114 l-7 114 33 17 c51 26 88 65 99 105 16 60 25 234
11 226 -6 -4 -11 -2 -11 3 0 6 4 11 9 11 15 0 -4 61 -37 125 -18 33 -32 70
-32 82 0 16 -4 21 -16 16 -14 -5 -14 -3 -3 15 24 39 -22 312 -53 312 -5 0 -7
12 -3 30 9 39 -9 91 -56 165 -55 87 -73 95 -218 96 -149 0 -202 -17 -221 -75
-6 -20 -16 -36 -21 -36 -12 0 -12 4 8 44 25 54 6 88 -68 120 -69 30 -63 28
-73 19z m57 -58 c20 -8 39 -20 44 -27 11 -18 13 -120 2 -140 -5 -10 -5 -19 0
-23 5 -3 11 4 13 15 4 28 22 30 26 3 2 -14 -4 -26 -17 -33 -15 -8 -18 -14 -11
-23 6 -7 17 -21 24 -32 11 -16 28 -20 88 -23 73 -4 114 6 160 40 9 7 21 8 25
4 4 -5 1 -11 -7 -14 -33 -12 -79 -69 -85 -108 -11 -67 -26 -86 -20 -25 4 30
11 63 16 73 9 17 4 18 -85 18 l-95 0 -16 30 c-15 30 -16 30 -43 13 -15 -10
-36 -28 -47 -40 -12 -13 -38 -24 -66 -27 -50 -7 -55 -3 -80 79 -6 22 -18 48
-26 57 -13 15 -13 20 5 46 11 15 28 47 37 69 13 32 27 46 58 62 51 24 56 25
100 6z m-998 -87 c39 -35 97 -85 129 -113 33 -27 64 -55 70 -60 59 -56 159
-135 177 -140 21 -7 21 -11 16 -92 -3 -47 -9 -89 -15 -95 -6 -6 -29 -4 -65 7
-30 9 -66 13 -79 10 -20 -5 -29 0 -51 34 -15 22 -27 54 -27 70 0 59 -18 86
-108 160 -61 51 -87 95 -106 186 -7 35 -21 76 -30 91 -17 24 -17 25 1 15 10
-5 50 -38 88 -73z m-110 20 c39 -188 54 -216 158 -294 l66 -48 -6 -46 c-5 -42
-2 -50 27 -84 29 -32 32 -41 26 -76 -6 -38 -5 -39 79 -117 77 -70 206 -167
260 -195 11 -6 -23 32 -75 84 -238 235 -252 265 -102 218 35 -11 74 -20 85
-20 12 0 58 -27 102 -60 44 -33 84 -60 89 -60 15 0 -116 134 -143 146 -24 11
-25 16 -26 107 0 53 0 95 2 93 2 -1 23 -43 47 -93 37 -75 55 -100 115 -153
l71 -64 0 -54 c0 -39 -6 -62 -21 -83 -15 -21 -19 -37 -14 -59 5 -24 -1 -42
-31 -90 l-37 -61 12 -136 c6 -76 17 -143 23 -151 21 -25 47 -33 69 -21 l21 11
-5 -354 c-4 -333 -9 -398 -27 -398 -5 0 -6 10 -3 22 4 19 3 20 -6 8 -10 -13
-11 -13 -11 0 0 12 -2 12 -9 2 -7 -11 -10 -10 -15 3 -10 27 -7 42 5 25 9 -12
10 -12 5 3 -3 10 -6 26 -7 35 0 13 -3 11 -11 -6 -16 -33 -33 -21 -32 24 2 35
0 36 -12 19 -8 -10 -14 -23 -14 -28 0 -4 -7 -1 -16 8 -11 11 -14 25 -10 45 7
38 -7 39 -21 2 -10 -24 -11 -21 -13 33 l-2 60 -15 -52 c-9 -29 -19 -53 -23
-53 -4 0 -17 9 -29 19 -17 15 -20 25 -15 48 6 26 5 27 -8 9 -14 -18 -15 -17
-12 15 4 32 3 32 -13 -11 -13 -33 -18 -40 -21 -25 -2 11 -8 24 -13 29 -5 6 -9
26 -10 45 0 20 -3 29 -6 21 -3 -8 -10 -26 -15 -40 l-10 -25 -10 25 c-5 14 -7
45 -4 70 l6 45 -19 -40 c-17 -36 -20 -37 -21 -15 -2 26 -4 22 -14 -22 -10 -44
-21 -32 -19 20 2 37 0 42 -6 22 -9 -25 -9 -25 -11 5 -2 22 -4 25 -7 10 -10
-40 -22 -36 -28 9 -7 46 -24 55 -26 13 -1 -24 -4 -18 -13 26 -4 17 -11 25 -18
21 -7 -5 -9 0 -6 14 4 12 3 22 -2 22 -4 0 -10 -18 -14 -39 -7 -46 -26 -65 -26
-27 0 19 -7 27 -25 32 -15 4 -25 13 -25 24 0 10 -7 24 -16 31 -15 12 -14 14 7
20 22 7 22 7 -6 9 -29 1 -29 2 -7 12 l23 11 -28 23 -28 23 40 1 c31 1 36 3 20
10 -11 4 -31 20 -44 34 l-24 26 26 0 c32 0 35 15 7 32 -26 17 -26 28 1 21 19
-5 19 -4 -5 39 -14 25 -22 49 -18 52 3 4 -1 4 -10 1 -13 -5 -16 -2 -13 14 3
15 -1 21 -15 21 -24 0 -70 21 -70 32 0 12 16 10 57 -7 l37 -16 -24 25 c-13 14
-31 28 -42 32 -10 3 -18 12 -18 20 0 16 16 19 25 4 3 -5 16 -10 27 -10 20 0
21 1 3 20 -10 11 -23 20 -30 20 -10 0 -35 40 -35 55 0 2 14 -3 31 -12 23 -11
34 -12 42 -4 8 8 8 11 -1 11 -7 0 -25 12 -40 26 l-27 26 25 -7 25 -6 -22 20
c-33 28 -30 48 3 26 39 -26 42 -9 4 30 -19 19 -29 35 -24 35 6 0 15 -5 22 -12
6 -6 15 -8 19 -4 5 4 -4 18 -19 31 -16 13 -28 31 -28 40 0 14 5 13 30 -5 35
-25 39 -16 8 18 -13 14 -18 22 -11 19 16 -10 11 13 -9 42 -20 28 -16 40 7 21
9 -7 18 -10 22 -7 3 4 -1 9 -10 13 -9 3 -23 19 -31 34 -12 24 -12 28 0 23 8
-3 14 0 14 6 0 6 -4 11 -10 11 -5 0 -14 10 -21 22 -10 18 -9 20 4 15 14 -5 14
-2 5 19 -14 31 -23 28 -51 -16 -15 -25 -17 -31 -5 -22 28 22 19 -28 -11 -60
-26 -29 -23 -35 10 -18 29 16 23 2 -11 -27 -34 -29 -34 -41 1 -22 19 10 18 6
-9 -27 -36 -43 -35 -55 3 -30 35 23 31 9 -7 -32 l-33 -34 33 16 c18 9 32 12
32 6 0 -5 -4 -10 -10 -10 -5 0 -7 -7 -4 -15 6 -15 -53 -58 -68 -49 -14 9 -9
21 15 33 21 11 21 11 -5 6 -20 -4 -28 -1 -28 9 0 17 -32 76 -42 76 -3 0 -16
-16 -28 -35 -12 -20 -30 -35 -40 -35 -24 0 -70 21 -70 32 0 11 28 10 35 -2 3
-5 13 -10 22 -10 15 0 14 2 0 18 -21 23 -21 32 -2 32 21 0 19 21 -3 27 -10 2
-26 18 -36 34 -19 33 -16 36 18 13 13 -8 27 -11 30 -6 3 5 -12 17 -32 27 -20
10 -32 20 -25 22 7 2 22 -1 35 -7 20 -9 19 -8 -4 12 -16 13 -28 28 -28 32 0 5
7 3 15 -4 29 -24 29 0 0 30 -31 32 -24 40 13 14 32 -22 27 -5 -10 33 -17 18
-29 35 -26 38 3 3 13 -2 22 -11 28 -28 30 -7 2 26 -31 37 -35 61 -6 35 33 -30
34 -10 1 28 -18 20 -29 41 -25 50 3 8 1 18 -5 22 -13 8 -15 35 -2 35 5 0 11
-9 14 -20 6 -24 21 -25 77 -5 57 20 106 19 159 -5 24 -11 46 -19 48 -17 6 6
-73 121 -101 146 -14 14 -26 30 -26 37 0 18 68 74 90 74 29 0 24 -14 -15 -44
-46 -35 -45 -60 3 -85 43 -22 96 -89 140 -176 37 -74 64 -100 173 -163 47 -28
111 -72 142 -97 32 -25 57 -42 57 -37 0 4 -31 42 -68 83 -38 41 -90 106 -116
146 -51 79 -108 131 -201 187 -33 19 -71 44 -84 54 l-24 19 28 51 28 52 -26
26 c-45 45 -35 94 31 167 33 35 39 34 47 -5z m1575 -23 c37 -35 80 -114 80
-146 0 -13 7 -31 17 -41 9 -10 12 -18 7 -18 -14 0 -30 14 -37 30 -3 9 -6 4 -6
-11 -1 -15 6 -29 13 -32 19 -8 42 -53 51 -100 7 -34 4 -40 -30 -72 -33 -31
-34 -35 -15 -35 16 0 20 -4 16 -15 -3 -9 0 -15 8 -15 8 0 12 7 10 18 -2 9 10
33 26 52 17 19 30 29 30 23 0 -6 -12 -25 -26 -42 -21 -26 -24 -34 -14 -46 7
-8 10 -25 7 -37 -3 -11 1 -37 9 -56 20 -50 18 -53 -26 -46 -28 5 -65 0 -119
-16 l-79 -22 -36 36 c-32 31 -36 41 -33 73 4 37 5 38 48 41 127 7 144 32 23
32 -75 0 -134 18 -134 41 0 7 11 4 26 -6 32 -21 194 -35 194 -17 0 6 -17 14
-37 17 -88 14 -98 19 -96 51 1 16 0 23 -3 17 -8 -18 -24 -16 -24 2 0 8 4 15 8
15 11 0 13 48 2 55 -18 11 -11 35 22 76 29 36 31 41 16 56 -15 15 -22 14 -88
-7 -73 -23 -147 -23 -176 1 -21 18 -6 99 24 132 37 39 71 46 199 44 109 -2
112 -3 143 -32z m-437 -214 c23 -39 128 -136 166 -152 32 -14 41 -29 18 -29
-17 0 -83 48 -116 83 -13 14 -29 23 -35 21 -7 -3 -21 5 -32 18 l-19 22 30 -18
30 -17 -31 29 c-29 27 -51 72 -35 72 4 0 14 -13 24 -29z m185 -61 c5 -63 11
-80 32 -80 20 0 26 -11 14 -23 -7 -6 -154 110 -154 122 0 17 16 22 60 19 44
-3 45 -4 48 -38z m92 -5 c10 -12 10 -15 -4 -15 -11 0 -16 -9 -16 -27 0 -16 -4
-23 -9 -17 -10 10 -3 74 9 74 4 0 13 -7 20 -15z m-1304 -197 c37 -40 58 -78
43 -78 -17 0 -99 87 -99 106 0 19 26 6 56 -28z m1234 -19 c0 -25 -4 -39 -11
-37 -6 2 -10 7 -10 11 1 4 1 21 1 37 0 17 5 30 10 30 6 0 10 -18 10 -41z m50
-57 c0 -13 -4 -21 -9 -18 -10 7 -20 53 -13 61 9 8 22 -18 22 -43z m17 -91 c-3
-11 -8 -7 -15 12 -7 16 -9 34 -5 40 8 13 25 -31 20 -52z m42 23 c23 -39 25
-44 13 -44 -9 0 -42 54 -42 69 0 19 7 12 29 -25z m266 -4 c14 -6 0 -9 -47 -9
-37 -1 -70 4 -73 9 -8 12 91 12 120 0z m-135 -10 c0 -6 -6 -10 -12 -9 -23 4
-48 -13 -48 -31 0 -10 -6 -23 -14 -29 -8 -7 -18 -37 -22 -67 -3 -30 -11 -54
-16 -54 -14 0 0 87 20 125 9 16 16 34 17 40 0 11 43 35 63 35 6 0 12 -5 12
-10z m196 -42 c13 -26 15 -48 10 -117 -4 -47 -14 -97 -22 -111 -15 -25 -17
-25 -132 -24 l-117 1 -3 34 c-2 19 -8 39 -14 44 -6 7 -9 5 -8 -5 4 -29 0 -50
-10 -50 -18 0 -11 49 10 70 11 11 20 28 20 38 0 27 19 85 34 104 12 17 15 17
45 2 38 -19 69 -13 120 22 19 13 39 24 43 24 4 0 15 -14 24 -32z m-376 -103
c0 -13 -29 10 -39 31 -19 43 -12 48 14 10 14 -20 25 -39 25 -41z m-56 -58 c-4
-26 -10 -47 -15 -47 -5 0 -6 15 -2 33 4 22 2 29 -5 22 -13 -12 -42 -111 -42
-142 0 -13 -5 -23 -11 -23 -14 0 -3 80 17 130 14 33 54 84 61 77 2 -2 0 -25
-3 -50z m471 -72 c-20 -38 -55 -63 -55 -40 0 8 4 15 9 15 24 0 41 34 41 79 0
61 14 76 18 19 2 -26 -3 -55 -13 -73z m-2160 15 c3 -5 20 -10 36 -10 33 0 37
-22 5 -28 -19 -4 -66 23 -66 38 0 13 17 13 25 0z m255 -50 c0 -6 -8 -14 -17
-17 -19 -7 -33 -22 -33 -36 0 -4 9 -3 21 3 28 15 39 2 14 -16 -23 -17 -67 -15
-73 4 -2 7 2 10 12 6 9 -3 16 -1 16 5 0 7 -7 14 -15 17 -23 9 -18 24 9 24 14
0 28 5 31 10 8 13 35 13 35 0z m-237 -12 c28 -13 37 -38 14 -38 -17 0 -57 29
-57 41 0 12 11 11 43 -3z m2062 -8 c-3 -6 -50 -10 -106 -10 -59 0 -99 4 -99
10 0 6 42 10 106 10 67 0 103 -4 99 -10z m-775 -44 c0 -28 -5 -38 -27 -48 -26
-13 -28 -18 -27 -70 l1 -57 -43 6 c-27 3 -49 1 -57 -6 -19 -15 -27 -4 -27 40
0 37 2 39 70 74 48 26 73 46 82 66 17 39 28 37 28 -5z m230 -32 c0 -27 -4 -43
-10 -39 -11 7 -13 45 -4 69 10 26 14 18 14 -30z m-1539 22 c6 3 21 -2 35 -11
29 -19 23 -41 -7 -24 -11 6 -27 8 -35 5 -10 -4 -14 2 -13 22 0 15 3 21 6 14 2
-6 9 -9 14 -6z m-54 -28 c-2 -7 -14 -12 -26 -11 -12 2 -21 -3 -21 -11 0 -8 -7
-16 -15 -20 -24 -9 -18 21 7 38 27 19 61 21 55 4z m311 -6 c6 -18 -46 -38 -61
-23 -9 9 -7 13 11 17 12 4 22 11 22 16 0 13 23 5 28 -10z m-459 -5 c6 -8 8
-17 5 -20 -7 -7 -44 14 -44 25 0 13 27 9 39 -5z m235 -28 c14 -7 23 -16 20
-20 -9 -15 -30 -10 -55 11 -20 16 -21 19 -7 20 9 0 28 -5 42 -11z m-94 -7 c0
-12 -57 -52 -64 -45 -3 3 4 16 17 28 22 23 47 32 47 17z m330 -23 c0 -13 -50
-31 -69 -24 -10 4 -5 11 20 23 34 18 49 19 49 1z m-242 -26 c12 -3 22 -9 22
-14 0 -18 -31 -21 -55 -5 -29 19 -34 42 -7 31 9 -4 27 -10 40 -12z m-78 -48
c0 -46 -6 -51 -44 -36 -19 7 -19 8 2 13 26 7 30 38 5 38 -15 0 -14 2 3 15 30
22 34 18 34 -30z m314 16 c7 -11 -17 -21 -47 -21 -22 1 -22 1 -3 15 22 17 42
19 50 6z m1059 -13 c4 -13 9 -89 13 -171 5 -112 4 -157 -6 -188 -11 -32 -11
-45 -2 -60 7 -11 10 -30 6 -44 -4 -17 -1 -27 9 -31 19 -7 13 -56 -15 -129 -14
-34 -20 -78 -21 -135 -2 -75 -5 -90 -27 -117 -31 -40 -40 -41 -40 -4 0 35 -20
53 -21 19 0 -22 -1 -22 -9 -3 -8 19 -9 18 -9 -4 l-1 -25 -20 22 c-20 21 -20
33 -18 424 l3 403 28 3 c16 2 34 -2 42 -8 10 -8 14 -8 18 2 3 7 6 -2 6 -19 1
-18 -3 -33 -8 -33 -5 0 -7 -9 -4 -20 8 -30 21 -24 28 13 24 127 36 153 48 105z
m-1284 -24 c2 -2 2 -7 -2 -10 -9 -10 -57 5 -57 17 0 10 48 4 59 -7z m301 -33
c0 -16 -15 -14 -30 4 -17 20 -3 39 16 21 8 -8 14 -19 14 -25z m-321 -15 c13
-7 20 -16 15 -18 -13 -8 -54 9 -54 22 0 13 10 12 39 -4z m251 -57 c0 -10 -31
-12 -54 -3 -28 11 -17 20 19 16 19 -2 35 -8 35 -13z"/>
<path d="M1382 1100 c-1 -19 -5 -59 -8 -87 -5 -34 -3 -53 4 -53 16 0 18 20 12
100 -4 41 -8 59 -8 40z"/>
<path d="M1962 2288 c-7 -7 -12 -37 -12 -67 0 -42 5 -60 21 -77 17 -18 19 -26
10 -42 -14 -26 -14 -52 -1 -52 6 0 10 12 10 28 1 15 7 38 15 52 27 47 13 170
-20 170 -6 0 -16 -5 -23 -12z m32 -69 c7 -66 4 -90 -9 -77 -9 8 -13 148 -5
148 4 0 11 -32 14 -71z"/>
<path d="M2237 1803 c-13 -12 -7 -40 13 -58 11 -10 20 -13 20 -8 0 20 -26 73
-33 66z"/>
<path d="M12 1464 c3 -46 4 -48 43 -59 32 -8 36 -12 22 -18 -10 -4 -27 -7 -38
-7 -25 0 -35 -26 -18 -47 8 -9 48 -32 89 -51 l75 -35 -41 -18 c-83 -35 -65
-50 81 -74 128 -20 235 -45 235 -53 0 -4 -23 -15 -51 -25 -65 -23 -93 -50 -79
-76 12 -23 41 -33 190 -65 121 -25 198 -51 186 -63 -4 -4 -21 -12 -37 -18 -60
-20 -35 -30 86 -35 66 -3 113 -8 105 -11 -8 -3 -35 -12 -60 -20 -33 -10 -46
-20 -48 -35 -4 -25 22 -33 191 -59 165 -26 357 -77 357 -96 0 -7 -62 -29 -85
-29 -5 0 -26 -10 -45 -21 l-34 -21 23 -19 c13 -11 34 -19 47 -19 43 0 33 -17
-21 -34 -65 -20 -101 -47 -92 -69 7 -20 55 -33 172 -47 50 -6 119 -18 155 -26
85 -19 320 -96 320 -105 0 -4 -15 -10 -32 -13 -45 -8 -138 -53 -165 -78 -32
-30 -29 -53 10 -80 32 -23 35 -23 355 -25 206 -2 322 1 322 7 0 6 -68 10 -177
10 -211 1 -425 15 -454 30 -36 20 -17 43 58 75 93 39 111 55 95 90 -23 50
-243 123 -467 155 -49 7 -94 16 -99 21 -4 4 6 14 23 23 37 20 58 53 42 69 -19
19 -12 36 23 51 66 28 67 79 1 110 -53 26 -197 63 -305 81 -58 9 -109 20 -114
25 -4 4 2 18 14 30 22 22 22 22 3 42 -13 12 -40 21 -76 25 -34 3 -57 11 -57
18 0 17 -40 52 -80 69 -19 8 -82 24 -140 36 -58 12 -111 25 -119 30 -10 5 -1
16 33 40 88 64 52 102 -130 135 -118 21 -117 21 -105 43 14 27 -10 57 -70 87
-27 14 -49 28 -49 31 0 2 7 15 15 28 14 22 13 25 -25 60 -22 20 -40 43 -40 51
0 8 -5 17 -11 20 -7 5 -9 -9 -7 -41z"/>
<path d="M2028 987 c-20 -24 -42 -63 -48 -87 -6 -23 -22 -59 -35 -80 -31 -48
-57 -128 -50 -150 11 -34 69 -69 126 -75 30 -4 69 -13 87 -21 18 -9 41 -12 52
-9 10 3 31 0 46 -8 40 -21 112 -5 147 33 21 24 27 40 27 78 0 86 -14 114 -93
182 -39 35 -97 90 -127 122 -32 33 -64 58 -76 58 -11 0 -35 -19 -56 -43z m74
-46 c40 -18 138 -94 165 -128 7 -9 22 -21 35 -27 27 -13 36 -42 37 -118 l1
-57 -37 -10 c-100 -26 -100 -26 -80 -4 21 25 22 40 1 22 -26 -22 -44 -19 -44
6 0 13 -4 27 -10 30 -6 4 -10 -6 -10 -23 0 -16 -3 -32 -6 -35 -12 -12 -44 14
-44 36 0 18 -2 19 -10 7 -8 -12 -10 -10 -11 10 -1 22 -2 20 -12 -10 l-11 -35
-7 45 -6 45 -3 -45 c-2 -42 -3 -43 -10 -15 -4 17 -8 22 -9 13 -2 -32 -21 -19
-22 15 l-1 32 -9 -32 c-5 -18 -16 -33 -24 -33 -11 0 -12 7 -4 32 5 18 9 42 9
53 -1 15 -6 11 -24 -18 -31 -51 -40 -57 -32 -23 9 38 64 149 78 157 6 4 12 22
14 40 3 43 21 89 33 89 5 0 29 -9 53 -19z"/>
</g>
</svg>
