<?xml version="1.0" standalone="no"?>
<!DOCTYPE svg PUBLIC "-//W3C//DTD SVG 20010904//EN"
 "http://www.w3.org/TR/2001/REC-SVG-20010904/DTD/svg10.dtd">
<svg version="1.0" xmlns="http://www.w3.org/2000/svg"
 width="225.000000pt" height="225.000000pt" viewBox="0 0 225.000000 225.000000"
 preserveAspectRatio="xMidYMid meet">
<metadata>
Created by potrace 1.10, written by Peter Selinger 2001-2011
</metadata>
<g transform="translate(0.000000,225.000000) scale(0.100000,-0.100000)"
fill="#ffffff" stroke="none">
<path d="M985 2056 c-248 -40 -461 -166 -606 -358 -412 -547 -137 -1326 527
-1490 113 -28 311 -30 423 -4 409 92 708 440 737 860 21 294 -108 594 -338
785 -93 78 -264 164 -378 191 -112 26 -264 33 -365 16z m366 -54 c360 -95 635
-412 674 -777 l8 -67 -29 15 c-16 8 -40 17 -54 20 -14 3 -33 12 -43 19 -16 12
-13 13 25 11 l43 -3 -45 22 c-53 27 -69 62 -23 53 l28 -6 -24 18 c-14 10 -34
26 -45 35 -21 17 -21 17 4 18 l25 0 -22 18 c-26 20 -53 80 -53 117 0 14 -4 25
-10 25 -5 0 -10 -22 -10 -49 0 -38 -6 -56 -25 -79 -30 -35 -31 -44 -7 -35 15
6 15 4 -2 -15 l-19 -22 -49 41 c-27 23 -55 54 -63 68 -7 15 -21 34 -30 41 -10
8 -21 25 -26 37 -5 13 -19 27 -31 32 -13 5 -33 23 -46 40 -36 50 -64 50 -110
2 -21 -23 -43 -41 -48 -41 -5 0 -15 23 -22 52 -6 28 -21 62 -33 74 -12 12 -32
45 -45 73 -12 28 -29 51 -36 51 -7 0 -19 9 -26 20 -7 11 -23 20 -37 20 -19 0
-30 -10 -49 -49 -15 -29 -39 -58 -61 -71 -19 -12 -41 -32 -48 -45 -6 -13 -28
-34 -47 -47 -24 -17 -42 -42 -61 -86 -14 -35 -31 -68 -36 -73 -14 -14 -53 6
-53 26 0 8 -11 22 -24 30 -23 15 -27 15 -65 -4 -22 -12 -52 -36 -66 -55 -15
-19 -41 -40 -59 -46 -17 -5 -54 -33 -81 -60 -34 -35 -51 -46 -57 -37 -5 8 -8
5 -8 -9 0 -11 -12 -31 -26 -45 l-27 -24 6 22 c3 13 1 26 -5 29 -5 3 -7 16 -4
29 4 16 1 25 -11 29 -12 5 -13 10 -6 17 8 8 6 20 -8 43 -10 17 -19 42 -19 56
-1 22 -3 20 -20 -15 -10 -22 -16 -43 -14 -47 2 -3 -5 -13 -17 -21 -15 -11 -17
-16 -7 -21 9 -4 10 -8 2 -11 -7 -3 -10 -14 -7 -23 2 -10 -2 -37 -10 -60 -8
-23 -11 -42 -7 -42 10 0 8 -34 -3 -41 -5 -4 -9 -19 -9 -33 0 -15 -4 -29 -9
-32 -14 -8 -11 74 6 171 32 183 113 335 254 476 137 137 291 220 467 254 105
20 293 13 395 -13z m-162 -213 c16 -12 37 -40 47 -63 10 -22 28 -52 40 -66 20
-23 59 -128 50 -137 -2 -2 -14 10 -27 28 -13 18 -17 29 -9 24 10 -6 12 -4 7 9
-4 10 -7 21 -7 26 0 5 -12 23 -27 41 -16 18 -33 49 -39 68 -7 24 -15 35 -26
33 -10 -1 -18 7 -22 23 -4 14 -10 25 -15 25 -17 0 -21 -32 -6 -60 17 -34 19
-50 5 -50 -5 0 -10 9 -10 20 0 11 -4 20 -10 20 -5 0 -10 -5 -10 -10 0 -6 -11
-22 -24 -35 -27 -27 -91 -134 -84 -141 3 -2 16 16 29 41 33 62 46 57 14 -5
-28 -55 -26 -60 12 -30 27 21 78 27 88 10 4 -6 -8 -10 -28 -10 -39 0 -132 -57
-182 -111 -31 -34 -21 -31 31 8 40 30 68 31 33 0 -15 -12 -40 -43 -57 -68 -17
-25 -47 -60 -67 -78 -36 -32 -36 -32 -8 -25 50 12 83 34 89 59 3 14 10 25 15
25 5 0 9 6 9 14 0 8 4 16 9 18 5 2 11 10 13 18 2 8 11 23 20 34 10 10 15 23
12 28 -3 4 -1 8 4 8 4 0 23 13 42 30 18 16 36 27 40 25 4 -2 16 3 26 11 10 8
15 17 9 20 -31 13 -75 45 -75 54 0 6 10 18 22 28 12 9 32 27 45 39 22 21 23
21 33 4 5 -10 6 -22 2 -26 -4 -5 -1 -5 6 -1 6 4 12 2 12 -4 0 -6 9 -20 20 -32
11 -12 20 -30 20 -41 0 -10 5 -27 10 -38 10 -17 6 -21 -22 -33 -18 -8 -32 -17
-30 -20 5 -13 1 -27 -7 -22 -4 3 -8 -4 -7 -17 0 -12 7 -26 14 -30 6 -4 12 -13
12 -18 0 -6 -5 -7 -12 -3 -7 5 -9 2 -5 -8 5 -15 -13 -27 -47 -32 -5 0 -11 -6
-13 -12 -3 -8 10 -9 47 -1 27 5 50 15 50 21 0 6 28 39 63 75 51 53 55 59 22
35 -51 -37 -32 -9 44 63 l55 53 23 -22 c26 -24 32 -48 7 -27 -15 12 -16 9 -13
-34 4 -46 4 -47 -13 -25 -10 13 -18 18 -18 13 0 -6 4 -15 8 -20 15 -17 41 -92
35 -99 -4 -3 -14 11 -24 31 -17 38 -18 38 -12 7 4 -28 1 -35 -33 -58 -22 -15
-67 -35 -102 -46 -59 -18 -106 -39 -90 -40 4 0 19 5 35 11 15 5 24 6 18 1 -5
-5 -50 -23 -100 -40 -63 -21 -100 -40 -124 -64 -18 -18 -37 -32 -42 -30 -5 1
-9 -6 -10 -15 0 -15 -2 -15 -9 2 -8 19 -9 19 -9 -2 -1 -24 -21 -43 -22 -21 0
7 -2 21 -4 30 -2 10 6 18 21 22 14 4 52 29 86 56 39 32 72 50 88 50 15 0 35 9
44 19 10 11 32 23 50 26 37 8 168 66 162 72 -3 3 -31 -7 -63 -20 -68 -30 -155
-49 -179 -40 -13 5 -16 3 -11 -10 3 -9 3 -16 -1 -15 -16 5 -100 -27 -95 -35 3
-5 -5 -6 -18 -2 -19 5 -21 4 -9 -4 8 -6 12 -11 8 -11 -3 0 -14 -3 -24 -7 -13
-5 -16 -3 -11 10 9 25 -7 29 -48 12 -20 -9 -78 -23 -128 -31 -51 -9 -107 -22
-124 -30 -29 -11 -33 -11 -33 3 0 9 3 14 6 10 4 -3 23 2 43 12 20 10 56 22 81
26 33 6 59 20 101 57 32 27 60 57 63 65 4 9 -12 -1 -34 -21 -22 -20 -46 -36
-53 -36 -6 0 -2 8 10 18 22 17 46 101 37 127 -3 6 0 24 6 40 6 15 9 30 6 32
-2 2 -13 -24 -25 -59 -12 -35 -33 -76 -47 -93 -14 -16 -23 -23 -19 -15 3 8
-12 -5 -34 -29 -22 -25 -38 -48 -36 -51 2 -4 -2 -7 -9 -7 -7 0 -13 6 -13 14 0
7 2 11 5 8 3 -2 17 15 32 39 15 23 41 52 57 64 20 14 38 44 57 90 37 96 95
146 66 57 -7 -20 -10 -39 -7 -41 3 -3 12 16 21 43 27 79 50 113 91 136 21 12
39 30 41 40 4 28 33 67 50 67 8 0 28 -10 43 -21z m381 -291 c0 -15 46 -71 113
-138 55 -56 69 -80 46 -80 -15 0 -119 101 -119 116 0 7 -12 26 -26 43 -14 17
-23 31 -19 31 3 0 -1 10 -9 22 -20 28 -21 44 -1 28 8 -7 15 -17 15 -22z m-280
12 c0 -5 -5 -9 -11 -7 -6 1 -17 -13 -23 -32 -7 -19 -18 -37 -24 -39 -10 -3
-10 3 0 25 20 48 58 82 58 53z m228 -11 c8 -12 15 -31 18 -42 2 -11 9 -24 16
-28 7 -5 13 -12 13 -16 1 -4 6 -18 13 -29 6 -12 13 -40 14 -63 2 -22 6 -41 10
-41 3 0 5 -13 4 -29 -1 -17 1 -28 5 -25 4 2 9 -5 12 -16 9 -33 -30 -24 -71 16
-20 20 -36 41 -34 46 1 5 -1 7 -6 4 -5 -3 -14 4 -22 14 -8 10 -17 17 -22 14
-4 -3 -8 2 -8 10 0 9 -4 16 -10 16 -16 0 -11 16 14 43 13 14 27 23 32 19 4 -4
3 0 -2 8 -12 21 -15 90 -4 90 5 0 7 7 4 15 -9 23 9 18 24 -6z m-751 -15 c2
-10 0 -13 -3 -6 -8 18 -24 15 -24 -5 -1 -10 -9 -43 -20 -73 l-18 -55 24 30
c13 17 24 24 24 16 0 -8 -24 -36 -52 -63 -29 -28 -83 -79 -119 -115 -44 -42
-69 -60 -72 -51 -3 7 -6 3 -6 -9 -1 -31 -21 -29 -21 2 0 17 12 33 43 54 23 17
69 56 102 87 59 55 59 62 0 18 -43 -31 -94 -56 -108 -51 -6 2 8 14 31 27 23
13 40 25 38 28 -3 2 -32 -12 -66 -32 -53 -31 -62 -34 -67 -19 -8 20 92 116
138 132 39 13 37 -1 -3 -22 l-33 -18 30 6 c42 8 74 33 119 94 40 52 59 60 63
25z m-80 -17 c-11 -24 -57 -56 -57 -40 0 9 63 74 67 70 1 -2 -3 -15 -10 -30z
m1146 -136 c6 -7 13 -24 15 -38 1 -14 9 -35 17 -47 14 -21 15 -24 15 -52 0 -8
4 -13 9 -9 6 3 8 -3 6 -13 -2 -11 7 -26 21 -37 21 -16 36 -64 16 -51 -12 7
-12 -37 0 -52 16 -19 73 -58 64 -44 -5 8 -2 10 8 6 31 -12 11 -84 -23 -84 -24
0 -45 -25 -37 -45 3 -8 0 -15 -6 -15 -6 0 -5 -6 3 -17 9 -11 10 -14 2 -9 -9 5
-11 2 -7 -8 12 -31 30 -15 25 22 -1 6 5 12 14 12 21 0 19 -27 -4 -47 -11 -9
-17 -22 -14 -30 3 -7 1 -19 -5 -26 -10 -12 -12 -17 -12 -38 0 -5 -5 -7 -12 -3
-7 4 -8 3 -4 -4 7 -11 -21 -57 -57 -94 -10 -10 -15 -24 -11 -30 4 -7 3 -8 -4
-4 -7 4 -12 3 -12 -1 0 -17 -94 -123 -108 -123 -4 0 -25 -18 -47 -40 -22 -21
-44 -40 -50 -40 -5 0 -30 -14 -54 -30 -25 -17 -51 -28 -58 -25 -8 2 -12 1 -9
-4 7 -11 -22 -23 -36 -14 -6 3 -8 1 -5 -4 4 -6 -13 -16 -41 -23 -26 -7 -51
-16 -57 -20 -10 -6 -20 -8 -75 -13 -14 -1 -27 -5 -30 -9 -9 -12 -241 -11 -279
1 -19 6 -37 8 -41 6 -4 -3 -41 7 -81 20 -41 14 -74 25 -74 25 0 -1 -13 3 -28
9 -16 6 -33 11 -38 11 -6 0 -7 5 -4 10 3 6 1 11 -4 11 -6 1 -16 2 -21 3 -6 0
-27 14 -47 30 -20 16 -33 23 -28 15 4 -8 -5 -2 -22 14 -16 15 -32 27 -37 27
-16 0 -157 151 -150 162 4 7 3 8 -4 4 -6 -3 -16 3 -22 14 -6 11 -7 20 -3 20 4
0 -2 6 -13 14 -22 17 -13 16 56 -3 25 -7 53 -15 64 -17 10 -2 21 -5 23 -8 2
-2 20 0 39 4 26 6 37 5 40 -5 3 -8 12 -11 19 -9 7 3 33 0 56 -7 24 -6 80 -12
124 -11 44 0 89 -5 100 -11 11 -6 26 -10 34 -8 7 1 11 -1 8 -6 -3 -5 2 -9 11
-10 49 -5 108 -16 112 -22 10 -13 82 -22 74 -10 -8 13 4 11 30 -6 13 -9 33
-17 45 -20 11 -2 30 -13 43 -24 12 -12 25 -22 30 -22 13 -2 22 -5 51 -17 37
-16 47 -15 77 6 20 13 26 26 27 57 0 22 8 72 17 110 14 61 21 98 28 153 1 6 5
12 9 12 4 0 3 14 -3 30 -5 17 -7 38 -2 48 4 9 8 31 8 47 1 17 9 41 18 55 13
17 15 26 6 31 -9 6 -9 11 0 22 7 7 9 17 5 21 -11 10 -12 37 -2 30 5 -3 9 0 9
7 0 8 4 8 16 -2 13 -11 14 -14 2 -23 -14 -11 -17 -57 -6 -86 16 -40 16 -62 2
-56 -10 4 -13 2 -7 -7 11 -18 13 -68 2 -62 -5 4 -6 -1 -3 -9 3 -9 11 -13 17
-9 6 4 8 -2 5 -15 -4 -12 -1 -25 4 -29 7 -4 8 -1 4 8 -4 8 -1 6 7 -3 8 -10 23
-18 34 -18 27 0 62 29 67 55 2 11 9 32 14 46 6 15 7 30 2 35 -15 16 -15 51 -1
68 11 13 12 22 4 34 -17 28 -73 61 -91 55 -13 -5 -14 -3 -6 6 9 10 18 9 42 -3
31 -16 40 -12 95 35 5 4 3 17 -4 30 -7 13 -14 29 -14 34 -1 6 -7 9 -14 7 -7
-1 -9 2 -6 8 4 6 12 9 18 7 21 -7 49 30 45 60 -1 15 -6 30 -10 33 -11 8 39 96
52 92 6 -1 9 2 6 7 -3 5 -3 17 1 28 7 17 8 17 11 -2 2 -11 9 -26 15 -34z
m-1000 9 c-3 -11 -14 -20 -24 -20 -11 0 -19 -4 -19 -10 0 -5 -5 -10 -11 -10
-8 0 -8 5 1 15 7 8 19 15 27 15 8 0 12 4 9 9 -4 5 0 12 6 14 7 3 14 6 15 6 0
1 -1 -8 -4 -19z m-512 -20 c6 0 7 6 3 13 -4 6 -3 9 1 4 5 -4 10 -15 11 -25 6
-39 11 -52 29 -72 22 -25 33 -25 58 -2 13 10 17 11 12 3 -6 -11 -4 -13 8 -8
23 9 31 -22 11 -44 -10 -11 -12 -19 -6 -19 7 0 12 -8 12 -17 1 -29 27 -58 42
-45 23 18 51 18 53 0 2 -13 -4 -18 -21 -19 -13 -1 -30 -2 -36 -3 -12 -1 -30
-13 -66 -46 -17 -15 -27 -64 -11 -54 5 3 9 -1 9 -10 0 -10 -12 -14 -42 -15
-58 0 -69 -3 -104 -28 l-30 -22 -13 21 c-7 11 -10 22 -8 25 3 2 1 19 -4 36 -7
26 -5 35 13 54 14 15 21 36 22 65 1 24 6 42 11 41 6 -1 11 23 12 53 1 32 8 66
18 81 9 14 13 23 8 20 -5 -3 -9 4 -10 16 0 12 1 16 4 10 3 -7 9 -13 14 -13z
m1118 -24 c27 -24 59 -47 70 -51 12 -3 21 -10 21 -14 0 -20 -76 17 -103 52
-17 20 -35 37 -40 37 -6 0 -7 -3 -4 -6 4 -4 -25 -29 -64 -56 -38 -28 -77 -61
-86 -75 -12 -18 -18 -21 -24 -11 -6 9 -9 7 -9 -9 0 -30 -20 -40 -21 -11 0 22
-1 22 -9 3 -7 -17 -9 -16 -9 10 -1 24 6 35 31 49 17 11 48 34 68 52 28 26 108
72 127 74 1 0 25 -20 52 -44z m216 7 c34 -28 42 -40 33 -50 -8 -10 -5 -13 16
-13 30 0 34 -16 9 -37 -17 -13 -16 -14 5 -8 24 7 31 -12 7 -21 -27 -11 -72 32
-79 74 -3 22 -15 51 -27 65 -29 37 -16 34 36 -10z m-250 -54 c-5 8 8 2 28 -13
36 -28 40 -46 11 -46 -8 0 -17 -7 -20 -15 -5 -12 -12 -11 -45 8 -50 28 -55 43
-21 61 21 11 30 12 41 3 12 -10 13 -9 6 2z m-448 -47 c-25 -25 -37 -47 -37
-66 0 -15 -4 -25 -10 -21 -5 3 -10 18 -10 33 -1 23 -2 25 -11 9 -6 -9 -7 -26
-4 -37 4 -11 2 -20 -4 -20 -5 0 -12 14 -16 31 -8 33 -13 33 -20 0 -2 -11 -7
-26 -10 -31 -7 -12 -35 -14 -36 -2 0 4 -2 14 -4 22 -7 26 -13 55 -14 63 -1 4
-5 7 -11 7 -5 0 -10 -12 -10 -28 0 -15 -8 -35 -18 -43 -17 -15 -20 -15 -30 0
-10 15 -11 14 -11 -1 -1 -21 -31 -13 -31 8 0 22 -17 16 -24 -8 l-7 -23 -12 24
c-9 19 -8 26 8 37 10 8 33 14 50 14 17 0 41 7 53 16 23 16 132 36 132 25 0 -3
-16 -16 -36 -29 -20 -13 -33 -26 -30 -29 3 -3 23 5 43 19 21 14 55 30 75 37
21 7 40 17 43 22 4 5 11 9 18 9 6 0 -6 -17 -26 -38z m-318 1 c0 -11 -59 -56
-65 -51 -6 7 43 58 56 58 5 0 10 -3 9 -7z m889 -13 c18 -11 42 -20 53 -20 18
0 20 -4 14 -27 -5 -16 -9 -39 -11 -53 -1 -14 -3 -28 -3 -32 -2 -20 -20 -5 -26
22 -7 32 -25 51 -25 26 0 -31 -20 -25 -59 16 -42 46 -46 60 -9 36 27 -18 78
-31 78 -21 0 4 -14 22 -32 40 -36 37 -29 42 20 13z m-400 -35 c-2 -1 -13 -6
-25 -9 -19 -6 -23 -4 -23 14 0 12 9 24 23 29 18 7 23 5 25 -11 2 -11 2 -21 0
-23z m177 15 c-10 -11 -13 -20 -7 -20 6 0 14 5 17 10 11 18 34 10 67 -23 30
-29 54 -43 111 -61 42 -13 10 -22 -65 -19 -96 5 -112 9 -102 24 4 7 22 9 48 6
l41 -6 -40 15 c-22 9 -66 15 -97 15 -49 0 -58 2 -58 17 0 11 16 26 43 39 53
28 65 28 42 3z m699 -15 c16 -11 26 -27 26 -41 0 -21 -2 -22 -29 -13 -15 6
-33 21 -39 34 -7 14 -18 25 -26 25 -8 0 -18 5 -22 12 -10 17 58 4 90 -17z
m-337 -44 c12 -12 27 -21 33 -21 21 0 4 -25 -18 -28 -12 -2 -20 -8 -17 -13 9
-14 -11 -11 -22 4 -6 6 -13 24 -17 39 -3 14 -9 34 -12 43 -6 15 -4 16 12 7 10
-6 29 -20 41 -31z m-1071 3 c-11 -7 -22 -11 -25 -8 -3 3 3 12 13 20 11 7 22
11 25 8 3 -3 -3 -12 -13 -20z m580 -16 c63 -11 87 -28 40 -28 -14 0 -27 -4
-30 -9 -3 -5 11 -9 32 -9 20 0 50 -6 66 -12 15 -5 68 -13 117 -17 77 -5 88 -8
86 -24 -2 -9 -9 -25 -17 -34 -14 -16 -13 -17 10 -10 l25 7 -27 -26 c-15 -14
-38 -26 -52 -26 -14 0 -28 -4 -31 -10 -4 -6 8 -10 29 -10 47 0 55 -18 22 -47
-15 -12 -22 -23 -15 -23 6 0 9 -7 6 -14 -4 -10 -1 -13 8 -10 10 4 13 -2 10
-23 -2 -15 -4 -30 -5 -33 -2 -3 -2 -8 -1 -12 0 -4 -4 -19 -9 -34 -9 -23 -8
-25 7 -20 12 5 8 -3 -10 -22 -20 -21 -25 -32 -17 -37 8 -5 9 -10 1 -18 -6 -6
-7 -16 -1 -28 8 -14 6 -19 -11 -24 -16 -5 -18 -10 -8 -21 9 -11 9 -14 -1 -14
-10 0 -10 -3 -1 -14 10 -11 8 -17 -6 -25 -17 -10 -17 -10 0 -11 9 0 17 -4 17
-9 0 -18 -33 -21 -64 -5 -17 8 -38 17 -46 19 -8 2 -26 8 -40 13 l-25 10 26 10
c62 24 84 92 53 157 -15 32 -64 65 -97 65 -17 0 -47 26 -47 40 0 5 6 7 13 5 6
-3 33 8 58 24 41 26 47 35 51 70 3 32 -2 46 -22 69 -28 34 -102 82 -124 82
-10 0 -14 9 -13 27 3 39 -34 43 -68 9 -28 -28 -33 -51 -10 -42 8 3 15 4 15 2
0 -3 3 -11 6 -19 4 -10 -5 -18 -28 -26 -25 -8 -39 -23 -56 -57 -16 -35 -18
-43 -6 -33 14 12 16 11 12 -6 -4 -20 -13 -22 -73 -10 -24 4 -26 3 -10 -4 11
-5 28 -12 38 -15 15 -5 16 -9 5 -26 -9 -14 -18 -18 -33 -12 -11 4 -39 7 -62 7
-100 -1 -143 -127 -67 -193 l27 -24 -49 7 c-27 4 -67 11 -89 17 -22 5 -51 10
-65 11 -21 2 -25 7 -22 32 2 25 1 27 -8 12 -6 -9 -15 -15 -21 -12 -5 3 -6 -1
-2 -11 5 -15 1 -16 -43 -10 -27 4 -53 12 -58 17 -6 5 -20 9 -32 9 -21 0 -45
10 -92 40 -13 8 -32 31 -42 50 l-18 35 102 1 c105 2 352 45 371 66 7 7 -32 8
-135 4 -116 -5 -155 -4 -195 9 -27 8 -63 15 -80 15 -16 1 -41 7 -54 14 -22 12
-22 13 -5 20 26 10 140 17 314 20 99 1 153 6 169 15 15 8 38 11 62 7 22 -3 39
-2 39 3 0 13 -108 29 -155 24 -75 -9 -23 14 70 31 101 18 153 33 240 70 70 30
68 30 151 14z m-940 -7 c-4 -5 -1 -11 5 -13 7 -2 5 -9 -5 -17 -14 -12 -16 -10
-16 13 0 14 5 26 11 26 5 0 8 -4 5 -9z m529 -22 c-5 -7 7 -8 39 -4 68 11 58
-11 -11 -25 -32 -7 -109 -23 -171 -36 -134 -28 -128 -28 -112 -9 10 12 10 15
-3 15 -9 0 -28 -5 -43 -10 -38 -15 -42 -4 -9 22 22 17 56 27 140 39 138 20
178 22 170 8z m1265 -42 c0 -12 -46 0 -76 20 -13 8 -21 19 -19 24 7 10 95 -31
95 -44z m-361 -72 c2 -5 -18 -13 -44 -17 -51 -7 -76 -1 -54 13 11 6 11 11 1
21 -6 6 -12 17 -12 24 0 14 103 -25 109 -41z m-527 17 c8 -6 18 -9 21 -5 4 3
7 1 7 -5 0 -7 6 -12 14 -12 8 0 23 -11 34 -25 11 -13 22 -22 24 -19 3 3 8 -9
10 -25 4 -24 -1 -36 -24 -56 -15 -14 -33 -26 -40 -27 -7 -2 -15 -6 -18 -10 -3
-4 -13 7 -23 24 -15 26 -15 29 -2 24 9 -3 13 -2 10 4 -3 5 5 15 19 22 14 6 26
17 26 24 0 22 -12 44 -21 38 -5 -3 -9 0 -9 5 0 6 -9 11 -21 11 -11 0 -17 5
-14 10 12 20 -15 9 -37 -14 -24 -25 -78 -45 -78 -29 0 16 23 33 46 33 24 0 49
24 40 39 -8 13 19 8 36 -7z m1 -93 c-74 -9 -86 -16 -80 -39 7 -25 -5 -26 -27
-1 -23 25 -13 41 23 41 16 0 39 8 52 18 21 17 25 18 53 3 l31 -16 -52 -6z
m493 -5 c-6 -22 -4 -24 21 -19 l28 6 -27 -23 c-32 -27 -35 -38 -10 -38 13 0
10 -6 -13 -25 -33 -27 -49 -32 -42 -12 2 6 -2 20 -11 30 -14 15 -13 17 3 17
17 0 17 1 2 18 -19 20 -23 37 -7 27 14 -9 12 7 -4 30 -13 19 -12 20 26 17 36
-4 39 -6 34 -28z m354 6 c8 -5 11 -12 8 -15 -4 -4 -17 0 -30 9 -24 17 -5 23
22 6z m-1700 -12 c0 -4 7 -8 16 -8 8 0 13 -4 9 -10 -3 -5 8 -8 28 -7 22 2 34
-1 34 -10 0 -9 -11 -11 -39 -7 -26 5 -38 3 -38 -5 0 -9 -5 -9 -20 -1 -24 13
-27 57 -5 57 8 0 15 -4 15 -9z m744 -126 c6 -17 3 -24 -16 -31 -19 -7 -25 -5
-33 14 -5 12 -16 29 -24 39 -11 13 -11 19 -1 31 17 20 36 4 46 -38 4 -18 9
-27 11 -20 2 6 -3 28 -11 48 -9 21 -16 40 -16 44 1 9 36 -60 44 -87z m90 72
c10 -27 7 -56 -6 -52 -15 5 -24 68 -10 68 6 0 13 -7 16 -16z m-75 -8 c7 -8 11
-27 9 -43 -3 -27 -4 -26 -20 15 -16 42 -11 55 11 28z m-130 -32 c10 -10 -16
-39 -40 -43 -23 -3 -39 -17 -39 -34 0 -5 4 -5 10 -2 6 3 7 -1 4 -9 -5 -12 1
-16 20 -16 21 0 28 6 32 30 7 35 30 58 44 44 22 -22 22 -69 -1 -97 -30 -39
-64 -50 -105 -37 -107 36 -70 193 40 175 16 -3 32 -8 35 -11z m196 -24 c3 -5
-1 -10 -9 -10 -8 0 -17 -8 -19 -17 -3 -11 -5 -7 -6 10 -1 27 21 38 34 17z m-5
-50 c-6 -12 -14 -19 -17 -17 -2 3 1 15 7 27 6 12 14 19 17 17 2 -3 -1 -15 -7
-27z m40 -4 c0 -16 -34 -48 -42 -40 -9 8 25 63 34 58 5 -3 8 -11 8 -18z m118
-21 c69 -58 35 -165 -53 -165 -33 0 -75 42 -75 75 0 21 5 25 30 25 22 0 28 -4
24 -15 -4 -8 -11 -15 -17 -15 -6 0 -8 -3 -5 -6 10 -10 76 7 82 21 6 16 -28 58
-39 47 -4 -4 -4 4 0 17 5 17 4 21 -5 16 -7 -4 -9 -17 -6 -31 7 -27 -8 -33 -18
-8 -9 24 -7 56 3 49 5 -3 12 -1 16 5 10 17 32 12 63 -15z m-213 3 c11 1 15 -2
10 -6 -18 -13 -16 -41 5 -52 14 -8 20 -8 20 0 0 6 5 8 10 5 6 -3 10 -14 10
-23 0 -9 7 -30 15 -46 20 -38 20 -38 -18 -23 -18 8 -54 17 -79 21 -26 4 -50
11 -53 16 -3 4 -14 6 -25 3 -11 -3 -28 -2 -37 1 -15 6 -12 10 16 24 22 10 40
29 50 54 13 30 20 36 36 31 11 -4 29 -6 40 -5z"/>
</g>
</svg>
