<svg width="2732" height="56" viewBox="0 0 2732 56" fill="none" xmlns="http://www.w3.org/2000/svg">
<g clip-path="url(#clip0_580_4)">
<path d="M1366 56V2.89954C1381 14.4729 1376.71 0.619096 1389.66 7.69687C1411.51 19.572 1432.84 23.4702 1454.72 14.476C1475.81 5.83954 1496.95 13.4773 1518.15 7.83998C1540.62 1.84176 1562.53 -7.51646 1585.51 10.5093C1600.3 22.0827 1617.08 7.53821 1632.97 7.35776C1639.32 7.26754 1645.71 -1.41868 1652.05 2.89954C1653.96 4.18754 1655.65 9.46398 1657.54 9.97732C1677.28 15.6147 1697.07 25.2124 1716.8 24.7613C1743.54 24.1329 1760.75 -2.88712 1787 14.476C1813.25 31.836 1782 20.3249 1805 24.7613C1826.39 28.8867 1856.53 -6.66713 1886 12.3169C1906.7 25.6947 1952.78 9.70665 1974 12.3169C2018.32 17.7458 2049 28 2094 24.7613C2147.14 20.9347 2142.92 17.7427 2154 14.476C2202.98 -0.0404585 2226.93 17.6711 2276 8.91332C2302.59 4.11598 2322.96 14.1493 2349.71 12.1707C2361.18 11.2995 2372.49 30.8871 2383.97 24.4689C2391.65 20.1818 2391.88 -0.0591238 2407.05 17.2449C2423 35.4355 2447 23.1155 2467.16 11.2715C2473.96 7.2831 2452.19 11.8378 2491.21 18.7973C2523 24.4689 2533.01 27.9129 2554.07 21.3173C2567.35 17.1484 2580.63 11.8098 2593.92 10.9107C2615.24 9.47021 2636.8 5.48176 2657.84 13.1289C2687.79 24.0178 2732 12.0182 2732 23.6258V56H1366Z" fill="white"/>
<path d="M1366 55.9997V2.8993C1351 14.4726 1355.29 0.618852 1342.34 7.69663C1320.49 19.5717 1299.16 23.47 1277.28 14.4757C1256.19 5.8393 1235.05 13.4771 1213.85 7.83974C1191.38 1.84152 1169.47 -7.5167 1146.49 10.5091C1131.7 22.0824 1114.92 7.53796 1099.03 7.35752C1092.68 7.2673 1086.29 -1.41893 1079.95 2.8993C1078.04 4.1873 1076.35 9.46374 1074.46 9.97707C1054.72 15.6144 1034.93 25.2122 1015.2 24.7611C988.464 24.1326 971.248 -2.88737 945 14.4757C918.752 31.8357 950 20.3246 927 24.7611C905.614 28.8864 875.468 -6.66737 846 12.3166C825.3 25.6944 779.217 9.70641 758 12.3166C713.679 17.7455 683 27.9997 638 24.7611C584.86 20.9344 589.078 17.7424 578 14.4757C529.022 -0.0407026 505.074 17.6709 456 8.91307C429.407 4.11574 409.041 14.1491 382.295 12.1704C370.825 11.2993 359.507 30.8869 348.027 24.4686C340.351 20.1815 340.119 -0.0593679 324.951 17.2446C309 35.4353 285 23.1153 264.837 11.2713C258.043 7.28285 279.807 11.8375 240.794 18.7971C209 24.4686 198.993 27.9126 177.929 21.3171C164.647 17.1482 151.366 11.8095 138.084 10.9104C116.762 9.46996 95.2 5.48152 74.156 13.1286C44.209 24.0175 0 12.018 0 23.6255V55.9997L1366 55.9997Z" fill="white"/>
</g>
<defs>
<clipPath id="clip0_580_4">
<rect width="2732" height="56" fill="white" transform="matrix(1 0 0 -1 0 56)"/>
</clipPath>
</defs>
</svg>