<svg id="wave" style="transform:rotate(0deg); transition: 0.3s" viewBox="0 0 1440 120" version="1.1" xmlns="http://www.w3.org/2000/svg"><defs><linearGradient id="sw-gradient-0" x1="0" x2="0" y1="1" y2="0"><stop stop-color="rgba(0,0,0)" offset="0%"></stop><stop stop-color="rgba(0,0,0)" offset="100%"></stop></linearGradient></defs><path style="transform:translate(0, 0px); opacity:1" fill="url(#sw-gradient-0)" d="M0,96L60,80C120,64,240,32,360,24C480,16,600,32,720,46C840,60,960,72,1080,68C1200,64,1320,44,1440,40C1560,36,1680,48,1800,50C1920,52,2040,44,2160,42C2280,40,2400,44,2520,40C2640,36,2760,24,2880,18C3000,12,3120,12,3240,24C3360,36,3480,60,3600,64C3720,68,3840,52,3960,46C4080,40,4200,44,4320,50C4440,56,4560,64,4680,62C4800,60,4920,48,5040,38C5160,28,5280,20,5400,26C5520,32,5640,52,5760,60C5880,68,6000,64,6120,52C6240,40,6360,20,6480,26C6600,32,6720,64,6840,72C6960,80,7080,64,7200,54C7320,44,7440,40,7560,42C7680,44,7800,52,7920,50C8040,48,8160,36,8280,40C8400,44,8520,64,8580,74L8640,84L8640,120L8580,120C8520,120,8400,120,8280,120C8160,120,8040,120,7920,120C7800,120,7680,120,7560,120C7440,120,7320,120,7200,120C7080,120,6960,120,6840,120C6720,120,6600,120,6480,120C6360,120,6240,120,6120,120C6000,120,5880,120,5760,120C5640,120,5520,120,5400,120C5280,120,5160,120,5040,120C4920,120,4800,120,4680,120C4560,120,4440,120,4320,120C4200,120,4080,120,3960,120C3840,120,3720,120,3600,120C3480,120,3360,120,3240,120C3120,120,3000,120,2880,120C2760,120,2640,120,2520,120C2400,120,2280,120,2160,120C2040,120,1920,120,1800,120C1680,120,1560,120,1440,120C1320,120,1200,120,1080,120C960,120,840,120,720,120C600,120,480,120,360,120C240,120,120,120,60,120L0,120Z"></path></svg>