<svg id="wave" style="transform:rotate(180deg); transition: 0.3s" viewBox="0 0 1440 120" version="1.1" xmlns="http://www.w3.org/2000/svg"><defs><linearGradient id="sw-gradient-0" x1="0" x2="0" y1="1" y2="0"><stop stop-color="rgba(246, 163, 6, 1)" offset="0%"></stop><stop stop-color="rgba(246, 163, 6, 1)" offset="100%"></stop></linearGradient></defs><path style="transform:translate(0, 0px); opacity:1" fill="url(#sw-gradient-0)" d="M0,96L80,80C160,64,320,32,480,24C640,16,800,32,960,46C1120,60,1280,72,1440,68C1600,64,1760,44,1920,40C2080,36,2240,48,2400,50C2560,52,2720,44,2880,42C3040,40,3200,44,3360,40C3520,36,3680,24,3840,18C4000,12,4160,12,4320,24C4480,36,4640,60,4800,64C4960,68,5120,52,5280,46C5440,40,5600,44,5760,50C5920,56,6080,64,6240,62C6400,60,6560,48,6720,38C6880,28,7040,20,7200,26C7360,32,7520,52,7680,60C7840,68,8000,64,8160,52C8320,40,8480,20,8640,26C8800,32,8960,64,9120,72C9280,80,9440,64,9600,54C9760,44,9920,40,10080,42C10240,44,10400,52,10560,50C10720,48,10880,36,11040,40C11200,44,11360,64,11440,74L11520,84L11520,120L11440,120C11360,120,11200,120,11040,120C10880,120,10720,120,10560,120C10400,120,10240,120,10080,120C9920,120,9760,120,9600,120C9440,120,9280,120,9120,120C8960,120,8800,120,8640,120C8480,120,8320,120,8160,120C8000,120,7840,120,7680,120C7520,120,7360,120,7200,120C7040,120,6880,120,6720,120C6560,120,6400,120,6240,120C6080,120,5920,120,5760,120C5600,120,5440,120,5280,120C5120,120,4960,120,4800,120C4640,120,4480,120,4320,120C4160,120,4000,120,3840,120C3680,120,3520,120,3360,120C3200,120,3040,120,2880,120C2720,120,2560,120,2400,120C2240,120,2080,120,1920,120C1760,120,1600,120,1440,120C1280,120,1120,120,960,120C800,120,640,120,480,120C320,120,160,120,80,120L0,120Z"></path></svg>