<!-- <svg width="100%" height="100%" id="svg" viewBox="0 0 1440 390" xmlns="http://www.w3.org/2000/svg" class="transition duration-300 ease-in-out delay-150"><style>
          .path-0{
            animation:pathAnim-0 4s;
            animation-timing-function: linear;
            animation-iteration-count: infinite;
          }
          @keyframes pathAnim-0{
            0%{
              d: path("M 0,400 L 0,150 C 138.66666666666669,147.06666666666666 277.33333333333337,144.13333333333335 455,161 C 632.6666666666666,177.86666666666665 849.3333333333333,214.53333333333333 1020,216 C 1190.6666666666667,217.46666666666667 1315.3333333333335,183.73333333333335 1440,150 L 1440,400 L 0,400 Z");
            }
            25%{
              d: path("M 0,400 L 0,150 C 116.66666666666669,148.66666666666666 233.33333333333337,147.33333333333331 402,161 C 570.6666666666666,174.66666666666669 791.3333333333333,203.33333333333334 973,204 C 1154.6666666666667,204.66666666666666 1297.3333333333335,177.33333333333331 1440,150 L 1440,400 L 0,400 Z");
            }
            50%{
              d: path("M 0,400 L 0,150 C 127.19999999999999,138.8 254.39999999999998,127.60000000000001 406,113 C 557.6,98.39999999999999 733.6000000000001,80.39999999999999 910,86 C 1086.3999999999999,91.60000000000001 1263.1999999999998,120.80000000000001 1440,150 L 1440,400 L 0,400 Z");
            }
            75%{
              d: path("M 0,400 L 0,150 C 197.59999999999997,180.66666666666666 395.19999999999993,211.33333333333331 553,191 C 710.8000000000001,170.66666666666669 828.8,99.33333333333333 970,84 C 1111.2,68.66666666666667 1275.6,109.33333333333334 1440,150 L 1440,400 L 0,400 Z");
            }
            100%{
              d: path("M 0,400 L 0,150 C 138.66666666666669,147.06666666666666 277.33333333333337,144.13333333333335 455,161 C 632.6666666666666,177.86666666666665 849.3333333333333,214.53333333333333 1020,216 C 1190.6666666666667,217.46666666666667 1315.3333333333335,183.73333333333335 1440,150 L 1440,400 L 0,400 Z");
            }
          }</style><defs><linearGradient id="gradient" x1="52%" y1="0%" x2="48%" y2="100%"><stop offset="5%" stop-color="#ffffff"></stop><stop offset="95%" stop-color="#000000"></stop></linearGradient></defs><path d="M 0,400 L 0,150 C 138.66666666666669,147.06666666666666 277.33333333333337,144.13333333333335 455,161 C 632.6666666666666,177.86666666666665 849.3333333333333,214.53333333333333 1020,216 C 1190.6666666666667,217.46666666666667 1315.3333333333335,183.73333333333335 1440,150 L 1440,400 L 0,400 Z" stroke="none" stroke-width="0" fill="url(#gradient)" fill-opacity="1" class="transition-all duration-300 ease-in-out delay-150 path-0" transform="rotate(-180 720 200)"></path></svg> -->



<svg xmlns="http://www.w3.org/2000/svg" viewBox="0 0 1440 100"><path fill="#000" fill-opacity="1" d="M0,64L34.3,69.3C68.6,75,137,85,206,85.3C274.3,85,343,75,411,80C480,85,549,107,617,96C685.7,85,754,43,823,26.7C891.4,11,960,21,1029,37.3C1097.1,53,1166,75,1234,85.3C1302.9,96,1371,96,1406,96L1440,96L1440,0L1405.7,0C1371.4,0,1303,0,1234,0C1165.7,0,1097,0,1029,0C960,0,891,0,823,0C754.3,0,686,0,617,0C548.6,0,480,0,411,0C342.9,0,274,0,206,0C137.1,0,69,0,34,0L0,0Z"></path></svg>