<svg  id="svg" viewBox="0 100 1440 150" xmlns="http://www.w3.org/2000/svg" class="transition duration-300 ease-in-out delay-150"><path d="M 0,400 L 0,150 C 30.617045303573803,154.68046461310712 61.23409060714761,159.3609292262142 100,172 C 138.7659093928524,184.6390707737858 185.68068287498335,205.23674770825033 227,195 C 268.31931712501665,184.76325229174967 304.04317789291883,143.6920799407846 341,124 C 377.95682210708117,104.3079200592154 416.1466055533413,105.99493252861129 461,102 C 505.8533944466587,98.00506747138871 557.3703998937159,88.32818994477023 603,109 C 648.6296001062841,129.67181005522977 688.3717948717948,180.6923076923077 722,187 C 755.6282051282052,193.3076923076923 783.1424206191047,154.902579285999 828,145 C 872.8575793808953,135.097420714001 935.0585226517868,153.6973751636964 975,143 C 1014.9414773482132,132.3026248363036 1032.6234887737478,92.3079200592154 1066,113 C 1099.3765112262522,133.6920799407846 1148.4475222532217,215.070944599442 1197,224 C 1245.5524777467783,232.929055400558 1293.5864222133653,169.4083015430166 1334,145 C 1374.4135777866347,120.59169845698342 1407.2067888933175,135.2958492284917 1440,150 L 1440,400 L 0,400 Z" stroke="none" stroke-width="0" fill="#b9bcbe" fill-opacity="1" class="transition-all duration-300 ease-in-out delay-150 path-0"></path></svg>